<svg id="Layer_1" data-name="Layer 1" xmlns="http://www.w3.org/2000/svg" viewBox="0 0 595.28 841.89"><defs><style>.cls-1{font-size:52.95px;fill:#231f20;font-family:CambriaMath, Cambria Math;}</style></defs><text class="cls-1" transform="translate(373.01 174.17) rotate(22.94)">f</text><text class="cls-1" transform="matrix(0.88, 0.48, -0.48, 0.88, 386.55, 179.56)">a</text><text class="cls-1" transform="matrix(0.8, 0.59, -0.59, 0.8, 408.32, 191.24)">d</text><text class="cls-1" transform="matrix(0.72, 0.7, -0.7, 0.72, 431, 208.03)">e</text><text class="cls-1" transform="matrix(0.65, 0.76, -0.76, 0.65, 448.77, 225.6)">i</text><text class="cls-1" transform="translate(457.86 236.33) rotate(53.93)">i</text><text class="cls-1" transform="matrix(0.5, 0.87, -0.87, 0.5, 466.36, 247.23)">n</text><text class="cls-1" transform="translate(480.27 272.29) rotate(65.96)"> </text><text class="cls-1" transform="matrix(0.35, 0.94, -0.94, 0.35, 484.82, 282.46)"> </text><text class="cls-1" transform="translate(488.84 292.8) rotate(73.18)">f</text><text class="cls-1" transform="translate(493.36 306.64) rotate(78.93)">a</text><text class="cls-1" transform="translate(498.3 330.86) rotate(86.68)">d</text><text class="cls-1" transform="matrix(-0.08, 1, -1, -0.08, 499.89, 359.05)">e</text><text class="cls-1" transform="translate(497.78 383.91) rotate(100.02)">i</text><text class="cls-1" transform="translate(495.36 397.77) rotate(104.17)">i</text><text class="cls-1" transform="matrix(-0.35, 0.94, -0.94, -0.35, 492.42, 411.27)">n</text><text class="cls-1" transform="matrix(-0.44, 0.9, -0.9, -0.44, 482.03, 437.98)"> </text><text class="cls-1" transform="translate(477.1 447.99) rotate(119.55)"> </text><text class="cls-1" transform="translate(471.72 457.67) rotate(123.44)">f</text><text class="cls-1" transform="translate(463.96 469.99) rotate(129.14)">a</text><text class="cls-1" transform="translate(448.5 489.3) rotate(136.86)">d</text><text class="cls-1" transform="matrix(-0.81, 0.58, -0.58, -0.81, 427.87, 508.58)">e</text><text class="cls-1" transform="translate(407.4 522.85) rotate(150.27)">i</text><text class="cls-1" transform="matrix(-0.9, 0.43, -0.43, -0.9, 395.2, 529.84)">i</text><text class="cls-1" transform="translate(382.95 536.21) rotate(160.67)">n</text><text class="cls-1" transform="translate(355.77 545.31) rotate(166.51)"> </text><text class="cls-1" transform="translate(344.93 547.93) rotate(169.8)"> </text><text class="cls-1" transform="translate(334.03 549.98) rotate(173.7)">f</text><text class="cls-1" transform="translate(319.53 551.83) rotate(179.07)">a</text><text class="cls-1" transform="translate(294.86 552.36) rotate(-172.96)">d</text><text class="cls-1" transform="translate(266.86 548.87) rotate(-165.17)">e</text><text class="cls-1" transform="matrix(-0.94, -0.35, 0.35, -0.94, 242.79, 542.25)">i</text><text class="cls-1" transform="translate(229.6 537.33) rotate(-155.27)">i</text><text class="cls-1" transform="translate(216.88 531.96) rotate(-149.03)">n</text><text class="cls-1" transform="matrix(-0.8, -0.6, 0.6, -0.8, 192.52, 516.87)"> </text><text class="cls-1" transform="matrix(-0.77, -0.64, 0.64, -0.77, 183.57, 510.2)"> </text><text class="cls-1" transform="matrix(-0.73, -0.69, 0.69, -0.73, 175.01, 503.04)"> </text><text class="cls-1" transform="translate(166.87 495.5) rotate(-132.85)">f</text><text class="cls-1" transform="matrix(-0.6, -0.8, 0.8, -0.6, 156.74, 485.05)">a</text><text class="cls-1" transform="matrix(-0.49, -0.87, 0.87, -0.49, 141.64, 465.47)">d</text><text class="cls-1" transform="translate(127.82 440.87) rotate(-111.63)">e</text><text class="cls-1" transform="translate(118.83 417.58) rotate(-105.89)">i</text><text class="cls-1" transform="translate(114.96 404.07) rotate(-101.73)">i</text><text class="cls-1" transform="matrix(-0.1, -1, 1, -0.1, 111.71, 390.65)">n</text><text class="cls-1" transform="translate(109.3 362.16) rotate(-89.07)"> </text><text class="cls-1" transform="matrix(0.06, -1, 1, 0.06, 109.4, 350.88)"> </text><text class="cls-1" transform="translate(109.97 339.84) rotate(-82.68)">f</text><text class="cls-1" transform="translate(111.51 325.34) rotate(-76.94)">a</text><text class="cls-1" transform="translate(116.9 301.22) rotate(-69.12)">d</text><text class="cls-1" transform="translate(127 274.88) rotate(-61.32)">e</text><text class="cls-1" transform="matrix(0.56, -0.83, 0.83, 0.56, 139.18, 253.09)">i</text><text class="cls-1" transform="matrix(0.62, -0.78, 0.78, 0.62, 147.11, 241.45)">i</text><text class="cls-1" transform="translate(155.35 230.37) rotate(-45.32)">n</text><text class="cls-1" transform="translate(175.79 210.28) rotate(-39.56)"> </text><text class="cls-1" transform="matrix(0.81, -0.59, 0.59, 0.81, 184.39, 203.15)"> </text><text class="cls-1" transform="matrix(0.84, -0.54, 0.54, 0.84, 193.25, 196.52)">f</text><text class="cls-1" transform="translate(205.37 188.45) rotate(-26.7)">a</text><text class="cls-1" transform="translate(227.38 177.16) rotate(-18.88)">d</text><text class="cls-1" transform="matrix(0.98, -0.19, 0.19, 0.98, 254.09, 168.07)">e</text><text class="cls-1" transform="matrix(1, -0.09, 0.09, 1, 278.63, 163.51)">i</text><text class="cls-1" transform="translate(292.67 162.17) rotate(-1.27)">i</text><text class="cls-1" transform="translate(306.44 161.41) rotate(4.85)">n</text><text class="cls-1" transform="matrix(0.98, 0.18, -0.18, 0.98, 334.95, 164.24)"> </text></svg>