<?xml version="1.0" encoding="utf-8"?>
<!-- Generator: Adobe Illustrator 16.0.0, SVG Export Plug-In . SVG Version: 6.00 Build 0)  -->
<!DOCTYPE svg PUBLIC "-//W3C//DTD SVG 1.1//EN" "http://www.w3.org/Graphics/SVG/1.1/DTD/svg11.dtd">
<svg version="1.1" id="Layer_1" xmlns="http://www.w3.org/2000/svg" xmlns:xlink="http://www.w3.org/1999/xlink" x="0px" y="0px"
	 width="470px" height="135px" viewBox="0 0 470 135" enable-background="new 0 0 470 135" xml:space="preserve">
<g>
	<path d="M57.838,19.921c-3.57-2.416-9.852-3.461-14.301-3.461c-9.651,0-18.376,3.832-23.468,11.909
		c-4.551,7.963-4.337,13.691-4.739,25.638l-9.574-0.039c-1.82,0-2.829,0.78-2.771,1.926c0.033,0.658,0.563,1.4,1.171,1.496
		c0.607,0.094,7.256,0.3,11,0.3l0.042,53.173l-0.008,0.822c0,0.378-0.085,0.63-0.294,0.818c-0.522,0.564-4.281,0.696-9.481,0.696
		c-1.455,0-2.429,0.832-2.429,1.582c0,1.164,1.101,1.646,2.922,1.646l17.716,0.095l13.531-0.194
		c0.402,0.091,0.884,0.122,1.491,0.122c1.214,0,2.456-0.392,2.403-1.52c-0.013-0.281-0.149-0.841-0.25-0.935
		c-0.4-0.47-1.604-1.021-6.397-0.795c-2.792,0.132-5.43-0.692-5.45-1.342l0.013-54.297l8.247,0.003
		c3.563-0.035,4.481-0.745,4.518-1.77c0.043-1.197-1.288-1.742-3.287-1.742l-9.469-0.021l-0.022-6.247
		c0-8.939,0.033-11.815,0.936-15.391c1.059-5.557,7.772-12.757,14.128-12.669c3.311,0.046,5.922,1.197,5.943,2.852
		c0.005,0.375-0.111,0.706-0.414,1.175c-1.317,1.882-2.003,3.881-2.003,5.29c0,1.693,0.86,3.312,2.176,4.44
		c1.313,1.129,3.07,1.808,5.269,1.851c2.22,0.043,4.046-0.863,5.311-2.133c1.265-1.271,2.068-3.092,1.959-5.377
		C62.105,24.627,60.838,21.952,57.838,19.921z"/>
	<path d="M125.114,107.3c-0.501-0.086-1.681,0.177-2.662,1.244c-1.792,1.953-3.853,3.007-6.611,3.029
		c-1.864,0.016-3.463-0.86-3.985-4.139c-0.167-1.045-0.197-3.16-0.197-7.501V73.473c0-6.418-0.542-10.951-1.455-13.124
		c-2.539-5.663-9.795-8.699-20.961-8.699c-7.41,0-13.34,1.963-17.502,5.455c-3.756,3.211-5.633,7.256-5.633,11.694
		c0,2.264,0.773,4.309,2.282,5.771c1.505,1.465,3.498,2.428,5.81,2.461c5.386,0.074,7.51-2.646,7.51-6.704
		c0-1.418-0.598-3.129-1.737-4.325c-1.041-1.092-2.245-1.659-3.483-1.704c-1.011-0.037-1.417-0.088-1.394-0.73
		c0.094-2.735,1.283-4.491,3.208-6.017c2.338-1.854,5.353-2.597,8.395-2.61c5.135-0.024,8.804,1.875,10.429,6.689
		c0.915,2.646,1.348,7.553,1.348,15.857l-0.048,3.248c-8.448,1.514-14.1,3.064-17.518,4.572
		c-9.959,4.533-14.958,10.877-14.822,19.034c0.054,3.313,1.602,6.736,4.43,9.144c2.826,2.408,6.516,3.73,10.859,3.73
		c7.279,0,13.3-2.762,17.378-9.122c0.864,5.843,4.789,8.659,11.218,8.699c3.331,0.021,6.747-0.964,10.375-2.618
		c4.387-2.002,5.717-4.076,5.717-5.684C126.065,107.925,125.647,107.39,125.114,107.3z M98.446,93.612
		c0,5.512-0.198,8.646-0.791,9.672c-2.575,4.482-5.755,6.442-10.012,6.442c-2.406,0-4.502-0.827-6.297-2.777
		c-1.68-1.823-2.508-4.052-2.486-6.958c0.031-4.298,1.873-7.493,4.375-9.543c3.185-2.609,7.766-4.458,15.21-6.137V93.612z"/>
	<path d="M202.641,110.443c-4.538,0-6.314-0.326-6.623-0.636c-0.374-1.91-0.576-12.96-0.576-35.149l-0.027-51.237
		c0-1.123,0-2.434,0-3.931c0-1.406-0.026-2.601-0.026-3.162c0-2.25-1.108-3.329-2.11-3.329c-0.302,0-0.652,0.094-1.052,0.282
		c-6.212,2.717-10.949,3.928-13.951,3.833l-5.22-0.109c-1.102,0-2.077,0.751-2.077,1.593c0,0.843,0.414,1.639,1.678,1.918
		c0.649,0.144,2.618-0.057,5.51-0.253c0.872-0.059,1.421-0.282,2.403,1.142c0.825,1.195,1.247,8.888,1.247,16.004v20.227
		c-3.632-4.057-6.988-5.857-13.844-5.857c-8.872,0-16.099,3.183-21.732,9.349c-5.498,6.018-8.186,14.014-8.186,23.697
		c0,9.405,2.882,17.362,8.378,23.428c5.494,6.064,12.587,9.203,21.056,9.203c5.949,0,9.811-1.995,13.65-5.242l-0.098,3.164
		c-0.014,1.227,0.824,2.093,1.815,2.093c0.531,0,1.365-0.354,2.779-1.075c3.427-1.804,7.375-2.705,12.316-2.705h1.21
		c0.908,0,1.875,0,2.684,0h0.757c1.78-0.002,2.598-0.629,2.597-1.504C205.197,111.127,204.255,110.443,202.641,110.443z
		 M180.691,105.082c-0.754,2.425-2.104,4.195-4.614,5.918c-2.511,1.729-3.989,2.497-7.1,2.497c-2.349,0-4.632-0.852-6.991-2.485
		c-2.36-1.631-3.94-3.764-5.145-6.281c-2.812-5.964-3.942-12.545-3.942-20.937c0-8.763,1.483-15.242,4.697-20.464
		c3.212-5.221,7.634-7.624,12.113-7.624c4.219,0,6.299,1.315,9.01,4.483c2.11,2.519,3.073,8.435,3.073,17.385
		C181.793,93.983,181.444,102.657,180.691,105.082z"/>
	<path d="M276.165,98.117c-0.709-0.016-1.567,0.09-2.26,1.293c-2.829,4.791-5.052,7.701-7.477,9.393
		c-2.423,1.692-5.489,2.645-9.528,2.645c-7.071,0-11.99-2.553-15.728-7.204c-4.021-5-5.836-12.156-5.836-21.61
		c0-2.807,0.15-5.047,0.656-8.139c11.411-0.279,16.796-0.395,17.503-0.395h11.11c5.353,0.093,9.631-0.177,12.865-0.65
		c-0.165-6.763-3.169-12.013-8.017-15.914c-4.849-3.894-11.085-5.865-18.256-5.865c-8.688,0-16.187,3.356-21.994,9.648
		c-5.809,6.294-8.708,14.26-8.708,23.653c0,9.434,3.188,16.898,9.301,23.004c6.109,6.106,13.869,9.211,22.959,9.211
		c7.271,0,13.319-2.104,17.661-6.237c1.615-1.501,3.353-3.596,4.919-5.991c1.565-2.396,2.397-4.332,2.397-5.272
		C277.734,98.922,277.172,98.14,276.165,98.117z M251.063,54.931c7.698,0,11.786,4.69,12.387,15.635H236.67
		C238.796,60.182,243.325,54.931,251.063,54.931z"/>
	<path d="M327.542,112.367c-2.969-0.062-3.771-0.003-6.133-0.427c-0.923-0.188-1.586-0.364-1.651-1.014
		c-0.069-0.681-0.184-2.173-0.184-5.973l0.007-38.871c0-2.565-0.007-4.455-0.007-5.598c0-0.831,0-1.3,0-1.423
		c0-3.8-0.49-6.279-1.533-7.877l-1.416,0.771c-5.02,2.805-10.545,4.402-17.315,4.605c-2.187,0.065-3.1,0.721-3.138,1.548
		c-0.031,0.678,0.429,1.497,1.986,1.561c0.611,0.026,0.938,0.02,1.349,0.02h4.937c0.4,0.027,0.931,0.065,1.153,0.249
		c0.099,0.466,0.209,1.11,0.314,3.491l0.019,41.793c0,3.522-0.095,5.815-0.367,6.44c-0.584,0.246-2.116,0.476-6.006,0.572
		c-2.048,0-3.387,0.76-3.387,2.119c0,1.074,1.11,1.568,2.24,1.568c0.715,0,1.43-0.195,1.959-0.562h15.856
		c2.045,0,4.602,0.135,7.674,0.326c2.56,0.188,3.589,0.225,3.487,0.225c1.717,0,2.724-0.832,2.724-1.813
		C330.11,113.205,329.388,112.405,327.542,112.367z"/>
	<path d="M377.251,112.367c-2.971-0.062-3.771-0.003-6.134-0.427c-0.922-0.188-1.587-0.364-1.652-1.014
		c-0.067-0.681-0.182-2.173-0.182-5.973l0.005-38.871c0-2.565-0.005-4.455-0.005-5.598c0-0.831,0-1.3,0-1.423
		c0-3.8-0.492-6.279-1.535-7.877l-1.416,0.771c-5.018,2.805-10.543,4.402-17.313,4.605c-2.187,0.065-3.1,0.721-3.138,1.548
		c-0.031,0.678,0.427,1.497,1.986,1.561c0.611,0.026,0.936,0.02,1.349,0.02h4.936c0.399,0.027,0.93,0.065,1.152,0.249
		c0.099,0.466,0.209,1.11,0.314,3.491l0.021,41.793c0,3.522-0.097,5.815-0.367,6.44c-0.584,0.246-2.116,0.476-6.006,0.572
		c-2.048,0-3.387,0.76-3.387,2.119c0,1.074,1.11,1.568,2.24,1.568c0.715,0,1.428-0.195,1.958-0.562h15.857
		c2.045,0,4.601,0.135,7.674,0.326c2.558,0.188,3.589,0.225,3.485,0.225c1.717,0,2.724-0.832,2.724-1.813
		C379.817,113.205,379.095,112.405,377.251,112.367z"/>
	<path d="M310.758,33.76c4.861,0,7.293-2.444,7.293-7.325c0-4.884-2.432-7.329-7.293-7.329c-4.862,0-7.294,2.553-7.294,7.651
		c0,1.954,0.699,3.608,2.108,4.966C306.974,33.084,308.704,33.76,310.758,33.76z"/>
	<path d="M360.463,33.76c4.861,0,7.294-2.444,7.294-7.325c0-4.884-2.433-7.329-7.294-7.329c-4.862,0-7.294,2.553-7.294,7.651
		c0,1.954,0.701,3.608,2.109,4.966C356.679,33.084,358.409,33.76,360.463,33.76z"/>
	<path d="M464.395,112.481h-0.774c-0.812,0-1.367,0.007-1.672,0c-2.086-0.047-3.854-0.119-4.404-0.651
		c-0.135-0.131-0.276-1.4-0.276-4.416l-0.014-32.246c0-7.918-1.057-13.301-2.884-16.128c-3.244-4.995-8.325-7.457-15.624-7.505
		c-7.061-0.047-14.729,2.073-19.997,8.388l-0.014-5.724c0-1.992-0.877-2.711-1.585-2.711c-0.508,0-1.357,0.292-2.271,1.043
		c-1.423,1.226-3.625,2.317-7.173,3.255c-3.55,0.945-6.831,1.481-9.871,1.576c-2.127,0-3.694,0.533-3.694,1.923
		c0,1.089,1.31,1.622,3.56,1.622h0.762c1.723,0,2.938,0.015,3.649,0c1.669-0.034,3.069,0.475,3.128,1.031
		c0.125,1.205,0.323,6.441,0.323,17.156l-0.009,30.662l-0.353,1.804c-0.304,0.661-0.853,0.922-2.373,0.922c-1.216,0-2.485,0-3.8,0
		c-2.12,0.157-3.077,0.824-3.12,1.726c-0.04,0.815,1.019,1.392,2.931,1.392h0.914c0.609,0,2.76,0,6.463,0c3.695,0,6.102,0,7.221,0
		c4.863,0,8.41,0,10.642,0c0,0,1.827,0.045,2.432,0c1.565-0.117,2.042-0.823,2.004-1.607c-0.031-0.66-0.726-1.51-2.021-1.517
		l-4.353-0.132c-1.548-0.037-2.998-0.313-2.939-1.352V67.229c0-2.164,0.688-3.561,1.724-4.764c3.198-3.706,7.706-5.645,12.276-5.471
		c4.252,0.163,7.586,1.726,9.153,5.706c0.784,1.985,1.258,7.635,1.258,17.882v26.48c0,2.634-0.121,4.465-0.339,4.753
		c-0.1,0.119-0.618,0.46-2.418,0.508c-3.347,0.092-5.378,0.245-5.941,0.265c-1.313,0.045-1.686,0.917-1.692,1.385
		c-0.014,0.858,0.691,1.707,2.939,1.648h1.064c1.823,0,7.703,0,17.638,0c3.14,0,4.895-0.013,6.718-0.013l2.287-0.019
		c1.382-0.011,2.339-0.734,2.407-1.579C466.353,113.077,465.413,112.526,464.395,112.481z"/>
</g>
</svg>
