<svg width="498" height="497" viewBox="0 0 498 497" fill="none" xmlns="http://www.w3.org/2000/svg">
<path d="M343.108 44.9202L337.417 42.5117L331.321 56.9166C330.87 57.9801 330.579 58.8019 330.446 59.3819C330.328 59.9686 330.304 60.4451 330.374 60.8114C330.466 61.1686 330.634 61.5017 330.878 61.8107C331.144 62.1105 331.6 62.4909 332.247 62.9519L331.754 64.1186L322.015 59.997L322.509 58.8304C323.288 58.9355 323.866 58.9646 324.241 58.9176C324.617 58.8706 324.941 58.7458 325.214 58.5432C325.502 58.3472 325.794 58.0121 326.088 57.5377C326.383 57.0634 326.762 56.2786 327.225 55.1833L333.322 40.7784L330.441 39.5591L330.955 38.3448C331.598 38.5048 332.025 38.6014 332.236 38.6344C332.469 38.6582 332.697 38.6515 332.918 38.6143C333.156 38.5838 333.382 38.4923 333.596 38.3397C333.826 38.1938 334.073 37.9426 334.336 37.586C334.622 37.2204 334.951 36.6859 335.324 35.9826C336.199 34.3129 337.103 33.0391 338.036 32.1613C338.985 31.2902 340.081 30.6685 341.324 30.2962C342.583 29.9307 343.8 29.8188 344.975 29.9606C346.173 30.0933 347.486 30.4619 348.915 31.0666C350.169 31.5973 351.196 32.1347 351.995 32.6788L350.171 36.9884L347.814 35.9907C347.908 34.9266 347.83 34.1167 347.579 33.561C347.35 32.9963 346.87 32.5593 346.14 32.2503C345.616 32.0286 345.141 31.9119 344.716 31.9003C344.306 31.8953 343.887 31.9798 343.458 32.1538C343.028 32.3277 342.595 32.6216 342.158 33.0355C341.737 33.4561 341.309 34.0239 340.876 34.7388C340.465 35.4445 340.004 36.4005 339.493 37.6069L338.435 40.1069L344.126 42.5154L343.108 44.9202Z" fill="#FEFDFC"/>
<path d="M351.296 69.821L351.005 69.5438C348.949 70.174 347.184 70.4511 345.71 70.3753C344.251 70.3077 342.869 69.9182 341.565 69.2067C340.412 68.5779 339.515 67.8036 338.876 66.8839C338.244 65.949 337.913 64.9514 337.881 63.891C337.857 62.8154 338.135 61.7468 338.714 60.685C339.922 58.4705 341.945 57.3598 344.783 57.3529C347.644 57.3391 351.32 58.4291 355.811 60.623L356.618 59.1441C357.479 57.5666 358.005 56.2401 358.198 55.1646C358.391 54.089 358.278 53.161 357.857 52.3806C357.436 51.6001 356.68 50.912 355.588 50.3163C354.405 49.671 353.28 49.4607 352.212 49.6855C351.16 49.9185 350.113 50.5577 349.071 51.6029L346.09 49.9771L347.703 47.0194C349.573 47.0552 351.089 47.1635 352.25 47.3441C353.419 47.5096 354.543 47.7585 355.621 48.0908C356.708 48.4079 357.752 48.8395 358.753 49.3856C360.254 50.2047 361.328 51.1051 361.973 52.0869C362.627 53.0535 362.912 54.1538 362.829 55.388C362.747 56.6221 362.163 58.2326 361.08 60.2197L356.761 68.1373C356.149 69.2598 355.722 70.0602 355.48 70.5387C355.247 71.002 355.061 71.4515 354.922 71.8873C354.783 72.323 354.723 72.7036 354.742 73.029C354.77 73.3393 354.882 73.6564 355.079 73.9804C355.292 74.3128 355.682 74.7519 356.25 75.298L355.642 76.4128L349.408 73.0125L351.296 69.821ZM354.794 62.4886C351.698 60.8395 349.169 59.9914 347.207 59.9446C345.245 59.8977 343.829 60.6706 342.961 62.2632C342.489 63.1278 342.291 63.9055 342.367 64.5963C342.443 65.2871 342.692 65.8759 343.116 66.3627C343.547 66.8343 344.127 67.2686 344.855 67.6657C345.887 68.2283 346.956 68.4869 348.063 68.4414C349.186 68.4041 350.193 68.127 351.085 67.6099C351.977 67.0928 352.63 66.4551 353.044 65.6967L354.794 62.4886Z" fill="#FEFDFC"/>
<path d="M389.032 66.5445C390.008 65.2208 390.676 64.2868 391.034 63.7424C391.407 63.2083 391.677 62.7263 391.845 62.2966C392.037 61.8633 392.126 61.4822 392.114 61.1534C392.114 60.8347 392.023 60.5116 391.838 60.1841C391.668 59.8668 391.277 59.3867 390.665 58.744L391.458 57.6684L396.616 61.1531L397.837 62.0531L380.172 86.0047C379.379 87.0802 378.83 87.8677 378.526 88.367C378.232 88.8526 378.052 89.2841 377.986 89.6616C377.921 90.039 377.967 90.4242 378.124 90.817C378.306 91.2062 378.713 91.7512 379.345 92.452L378.552 93.5276L373.518 90.1344L372.277 89.2192L375.027 86.0101L374.778 85.6986C373.228 85.9818 371.956 86.1188 370.962 86.1097C369.992 86.0969 369.04 85.9589 368.106 85.6957C367.185 85.4427 366.312 85.0111 365.484 84.4009C363.223 82.7332 362.109 80.5918 362.143 77.9769C362.187 75.3482 363.404 72.4136 365.793 69.1732C367.461 66.9118 369.275 65.29 371.234 64.3079C373.203 63.312 375.148 62.9262 377.069 63.1506C379.003 63.3852 380.819 64.1279 382.515 65.3788C383.425 66.0499 384.196 66.7359 384.829 67.4368C385.472 68.1238 386.064 68.9226 386.606 69.8332L389.032 66.5445ZM381.496 76.7622C382.289 75.6867 382.877 74.7893 383.258 74.07C383.64 73.3507 383.876 72.684 383.967 72.0699C384.072 71.4659 384.043 70.8699 383.88 70.2818C383.718 69.6937 383.453 69.1578 383.086 68.6742C382.733 68.2007 382.232 67.725 381.584 67.247C379.819 65.9453 377.951 65.6639 375.98 66.4029C374.018 67.128 372.062 68.8143 370.109 71.4618C368.157 74.1093 367.051 76.4022 366.792 78.3404C366.534 80.2786 367.177 81.8172 368.721 82.9562C369.328 83.4037 369.867 83.7266 370.338 83.925C370.819 84.1096 371.334 84.2339 371.883 84.298C372.442 84.3484 373.069 84.3211 373.764 84.2161C374.458 84.1111 375.017 83.9593 375.441 83.7605C375.878 83.572 376.302 83.2995 376.714 82.9433C377.126 82.587 377.581 82.071 378.079 81.3954L381.496 76.7622Z" fill="#FEFDFC"/>
<path d="M399.98 107.29C398.378 107.349 397.012 107.289 395.883 107.109C394.767 106.941 393.679 106.608 392.62 106.108C391.572 105.597 390.57 104.877 389.615 103.947C387.058 101.462 385.871 98.8226 386.052 96.0293C386.245 93.2236 387.795 90.3253 390.703 87.3344C392.5 85.4853 394.416 84.1731 396.449 83.3978C398.495 82.6346 400.506 82.4655 402.483 82.8905C404.459 83.3156 406.248 84.3063 407.849 85.8628C409.102 87.0814 409.977 88.3176 410.472 89.5714C410.967 90.8251 411.137 92.0529 410.982 93.2546C410.853 94.456 410.417 95.7228 409.677 97.0552C408.962 98.3872 407.802 99.9152 406.198 101.639L394.471 90.2374L394.145 90.5724C392.721 92.0368 391.682 93.4285 391.027 94.7474C390.397 96.066 390.177 97.3727 390.367 98.6675C390.581 99.9619 391.29 101.194 392.493 102.365C393.511 103.354 394.604 104.055 395.773 104.467C396.966 104.878 398.382 105.048 400.021 104.976L399.98 107.29ZM404.201 96.6917C405.429 95.279 406.324 94.024 406.884 92.9267C407.455 91.8171 407.698 90.7855 407.611 89.832C407.536 88.866 407.077 87.9729 406.233 87.1524C404.955 85.9097 403.43 85.4293 401.659 85.7113C399.913 85.9929 398.049 87.0168 396.066 88.7828L404.201 96.6917Z" fill="#FEFDFC"/>
<path d="M431.201 97.3052L427.389 100.565L424.297 96.95L428.109 93.6897L431.201 97.3052ZM400.87 113.516C401.464 113.892 401.91 114.135 402.207 114.244C402.515 114.365 402.836 114.409 403.169 114.374C403.513 114.352 403.935 114.195 404.434 113.904C404.945 113.626 405.659 113.095 406.576 112.31L415.143 104.983C415.981 104.266 416.645 103.676 417.133 103.213C417.621 102.75 417.949 102.311 418.116 101.896C418.296 101.47 418.318 101.031 418.182 100.581C418.07 100.132 417.815 99.5679 417.415 98.8888L418.457 97.9981L422.549 102.425L423.574 103.624L409.525 115.64C408.398 116.603 407.657 117.328 407.302 117.814C406.959 118.288 406.793 118.77 406.804 119.26C406.839 119.752 407.057 120.405 407.458 121.218L406.495 122.042L399.907 114.339L400.87 113.516Z" fill="#FEFDFC"/>
<path d="M441.704 111.073L437.649 114.026L434.849 110.18L438.903 107.227L441.704 111.073ZM410.203 124.87C410.766 125.291 411.192 125.568 411.479 125.699C411.777 125.845 412.094 125.913 412.428 125.904C412.773 125.909 413.206 125.786 413.726 125.534C414.257 125.297 415.01 124.823 415.985 124.113L425.097 117.476C425.988 116.826 426.696 116.29 427.219 115.866C427.742 115.442 428.103 115.03 428.301 114.63C428.514 114.219 428.57 113.783 428.47 113.324C428.393 112.867 428.183 112.285 427.837 111.577L428.945 110.77L432.68 115.503L433.608 116.777L418.666 127.661C417.468 128.534 416.673 129.199 416.28 129.655C415.902 130.102 415.699 130.569 415.671 131.059C415.668 131.552 415.834 132.219 416.171 133.062L415.147 133.808L409.179 125.616L410.203 124.87Z" fill="#FEFDFC"/>
<path d="M430.614 159.117L425.521 150.255L426.623 149.621C427.139 150.103 427.538 150.432 427.819 150.609C428.101 150.787 428.409 150.889 428.743 150.916C429.087 150.958 429.532 150.882 430.078 150.687C430.649 150.499 431.443 150.112 432.463 149.526L438.356 146.139C439.406 145.536 440.341 144.959 441.161 144.408C441.982 143.856 442.619 143.351 443.072 142.89C443.55 142.437 443.878 142.019 444.057 141.636C444.26 141.26 444.384 140.87 444.431 140.464C444.5 140.065 444.492 139.651 444.405 139.222C444.333 138.784 444.129 138.273 443.793 137.689C443.457 137.104 443.018 136.618 442.477 136.231C441.95 135.835 441.221 135.486 440.289 135.184C439.357 134.882 438.532 134.747 437.813 134.781C437.095 134.815 436.376 135.039 435.656 135.453L427.266 140.275C425.976 141.016 425.111 141.593 424.67 142.006C424.244 142.41 423.991 142.855 423.911 143.34C423.854 143.831 423.948 144.516 424.193 145.392L423.09 146.026L418.023 137.208L419.125 136.575C419.641 137.056 420.036 137.378 420.308 137.541C420.59 137.718 420.898 137.82 421.233 137.847C421.576 137.889 422.021 137.813 422.568 137.619C423.123 137.439 423.925 137.048 424.975 136.445L434.782 130.808C435.742 130.257 436.505 129.798 437.073 129.432C437.641 129.066 438.045 128.694 438.287 128.315C438.543 127.929 438.646 127.5 438.596 127.031C438.569 126.567 438.421 125.964 438.153 125.22L439.346 124.535L442.573 129.682L443.362 131.054L439.553 132.914L439.644 133.281C441.406 133.744 442.721 134.175 443.589 134.574C444.465 134.988 445.229 135.467 445.881 136.01C446.556 136.56 447.117 137.224 447.565 138.004C448.031 138.814 448.347 139.59 448.514 140.332C448.705 141.08 448.743 141.806 448.629 142.51C448.523 143.229 448.269 143.914 447.865 144.565C447.476 145.207 446.92 145.836 446.196 146.451C445.481 147.082 444.501 147.755 443.257 148.47L434.777 153.343C433.742 153.938 433.009 154.399 432.579 154.726C432.149 155.053 431.849 155.365 431.68 155.662C431.512 155.958 431.419 156.3 431.403 156.689C431.402 157.068 431.506 157.667 431.716 158.484L430.614 159.117Z" fill="#FEFDFC"/>
<path d="M465.449 190.864L463.661 184.949L448.688 189.475C447.582 189.81 446.764 190.111 446.233 190.38C445.707 190.665 445.326 190.951 445.088 191.239C444.873 191.538 444.724 191.88 444.642 192.265C444.582 192.661 444.582 193.256 444.641 194.048L443.428 194.415L440.369 184.293L441.581 183.926C441.999 184.592 442.346 185.054 442.622 185.313C442.898 185.572 443.201 185.741 443.532 185.821C443.867 185.918 444.311 185.928 444.864 185.851C445.417 185.774 446.263 185.563 447.401 185.219L462.374 180.693L461.469 177.698L462.731 177.316C463.019 177.913 463.218 178.303 463.328 178.487C463.458 178.681 463.609 178.852 463.779 178.998C463.955 179.161 464.17 179.276 464.424 179.344C464.683 179.427 465.034 179.456 465.477 179.43C465.941 179.416 466.562 179.327 467.341 179.164C469.184 178.769 470.741 178.649 472.013 178.805C473.29 178.977 474.468 179.422 475.55 180.14C476.636 180.874 477.5 181.738 478.143 182.732C478.807 183.738 479.364 184.983 479.813 186.468C480.207 187.771 480.45 188.904 480.543 189.866L476.063 191.221L475.323 188.771C476.201 188.163 476.774 187.585 477.04 187.036C477.328 186.499 477.357 185.851 477.128 185.092C476.963 184.547 476.749 184.108 476.486 183.773C476.228 183.455 475.895 183.187 475.486 182.968C475.078 182.749 474.575 182.604 473.977 182.533C473.384 182.478 472.675 182.512 471.848 182.636C471.042 182.772 470.013 183.029 468.759 183.408L466.16 184.194L467.948 190.108L465.449 190.864Z" fill="#FEFDFC"/>
<path d="M451.385 213.073L451.412 212.673C449.619 211.496 448.282 210.317 447.401 209.137C446.523 207.974 445.942 206.665 445.658 205.21C445.406 203.925 445.43 202.743 445.728 201.666C446.044 200.586 446.599 199.696 447.393 198.996C448.203 198.293 449.201 197.826 450.385 197.594C452.855 197.111 454.996 197.956 456.809 200.131C458.642 202.319 460.147 205.835 461.323 210.681L462.972 210.358C464.732 210.014 466.086 209.574 467.034 209.037C467.983 208.5 468.623 207.821 468.954 207.001C469.286 206.181 469.332 205.162 469.094 203.944C468.836 202.625 468.281 201.627 467.428 200.951C466.579 200.292 465.421 199.895 463.955 199.76L463.304 196.436L466.603 195.791C467.767 197.249 468.649 198.482 469.25 199.488C469.867 200.491 470.392 201.513 470.824 202.552C471.272 203.588 471.606 204.665 471.824 205.781C472.152 207.456 472.145 208.854 471.802 209.974C471.476 211.092 470.813 212.012 469.813 212.735C468.812 213.457 467.204 214.035 464.988 214.469L456.158 216.196C454.907 216.441 454.02 216.624 453.499 216.743C452.995 216.859 452.531 217.003 452.108 217.173C451.685 217.344 451.354 217.54 451.117 217.762C450.896 217.981 450.724 218.269 450.601 218.627C450.481 219.002 450.393 219.581 450.335 220.365L449.092 220.609L447.732 213.656L451.385 213.073ZM459.242 211.088C458.537 207.661 457.577 205.179 456.363 203.643C455.149 202.106 453.654 201.512 451.878 201.859C450.914 202.048 450.191 202.391 449.709 202.89C449.227 203.388 448.934 203.955 448.829 204.59C448.742 205.221 448.778 205.943 448.937 206.755C449.162 207.906 449.645 208.891 450.385 209.712C451.129 210.55 451.983 211.147 452.948 211.503C453.914 211.858 454.819 211.954 455.665 211.788L459.242 211.088Z" fill="#FEFDFC"/>
<path d="M478.676 240.107C480.328 240.011 481.48 239.927 482.132 239.854C482.785 239.799 483.331 239.698 483.772 239.552C484.23 239.422 484.583 239.246 484.829 239.025C485.076 238.82 485.267 238.542 485.402 238.188C485.538 237.853 485.658 237.241 485.762 236.355L487.104 236.277L487.724 242.508L487.813 244.031L457.923 245.765C456.581 245.843 455.619 245.925 455.037 246.01C454.472 246.095 454.023 246.233 453.688 246.425C453.354 246.617 453.086 246.9 452.883 247.275C452.699 247.665 452.539 248.33 452.403 249.271L451.061 249.348L450.45 243.272L450.36 241.723L454.611 241.788L454.692 241.394C453.476 240.377 452.552 239.481 451.92 238.706C451.306 237.948 450.801 237.122 450.404 236.23C450.008 235.356 449.78 234.402 449.72 233.37C449.556 230.548 450.497 228.309 452.542 226.654C454.604 224.997 457.657 224.052 461.7 223.817C464.522 223.654 466.943 224.014 468.963 224.898C470.999 225.781 472.548 227.038 473.61 228.669C474.672 230.316 475.265 232.198 475.388 234.315C475.454 235.451 475.419 236.489 475.283 237.429C475.165 238.368 474.928 239.34 474.572 240.345L478.676 240.107ZM465.925 240.846C467.268 240.768 468.339 240.646 469.141 240.478C469.943 240.311 470.611 240.065 471.144 239.741C471.679 239.433 472.122 239.028 472.472 238.524C472.823 238.02 473.067 237.471 473.205 236.876C473.345 236.298 473.391 235.605 473.344 234.796C473.216 232.594 472.232 230.967 470.393 229.917C468.571 228.866 466.008 228.436 462.704 228.628C459.401 228.82 456.916 229.439 455.25 230.485C453.584 231.531 452.807 233.018 452.919 234.945C452.963 235.702 453.059 236.327 453.209 236.819C453.375 237.31 453.61 237.788 453.914 238.254C454.234 238.719 454.658 239.186 455.186 239.656C455.714 240.126 456.191 240.461 456.617 240.661C457.044 240.878 457.528 241.031 458.068 241.121C458.609 241.21 459.3 241.231 460.144 241.182L465.925 240.846Z" fill="#FEFDFC"/>
<path d="M453.754 274.486C452.687 273.29 451.864 272.201 451.283 271.218C450.701 270.252 450.265 269.202 449.974 268.069C449.7 266.937 449.616 265.707 449.722 264.38C450.007 260.829 451.281 258.234 453.546 256.593C455.828 254.955 459.046 254.301 463.2 254.634C465.768 254.839 467.998 255.477 469.89 256.548C471.78 257.636 473.192 259.076 474.124 260.868C475.056 262.659 475.433 264.667 475.255 266.891C475.116 268.632 474.722 270.092 474.072 271.271C473.423 272.451 472.586 273.364 471.563 274.011C470.556 274.676 469.304 275.149 467.807 275.428C466.326 275.726 464.412 275.807 462.063 275.671L463.366 259.383L462.901 259.345C460.867 259.183 459.134 259.269 457.702 259.606C456.286 259.961 455.14 260.624 454.265 261.595C453.405 262.584 452.908 263.915 452.774 265.587C452.661 267 452.818 268.288 453.246 269.449C453.689 270.63 454.461 271.827 455.56 273.043L453.754 274.486ZM464.598 270.982C466.468 271.027 468.003 270.916 469.204 270.648C470.423 270.381 471.371 269.91 472.049 269.236C472.745 268.563 473.14 267.641 473.234 266.469C473.376 264.693 472.774 263.214 471.429 262.031C470.1 260.867 468.124 260.084 465.502 259.683L464.598 270.982Z" fill="#FEFDFC"/>
<path d="M481.446 292.285L476.507 291.412L477.335 286.728L482.274 287.601L481.446 292.285ZM449.66 279.16C449.747 279.858 449.843 280.356 449.948 280.655C450.049 280.97 450.219 281.245 450.458 281.48C450.694 281.732 451.083 281.958 451.625 282.159C452.164 282.377 453.027 282.591 454.216 282.8L465.316 284.762C466.402 284.954 467.28 285.091 467.948 285.174C468.616 285.257 469.163 285.231 469.589 285.097C470.032 284.965 470.385 284.703 470.647 284.312C470.922 283.941 471.195 283.385 471.466 282.645L472.816 282.884L471.997 288.856L471.722 290.41L453.518 287.193C452.058 286.935 451.028 286.823 450.427 286.857C449.843 286.894 449.365 287.072 448.994 287.391C448.636 287.731 448.27 288.314 447.897 289.14L446.649 288.92L448.413 278.94L449.66 279.16Z" fill="#FEFDFC"/>
<path d="M477.691 308.954L472.828 307.727L473.992 303.114L478.856 304.342L477.691 308.954ZM446.938 293.563C446.974 294.266 447.034 294.77 447.116 295.075C447.195 295.397 447.345 295.684 447.566 295.935C447.783 296.203 448.154 296.457 448.68 296.697C449.202 296.953 450.048 297.229 451.218 297.524L462.148 300.283C463.217 300.554 464.082 300.754 464.742 300.885C465.402 301.016 465.95 301.03 466.385 300.927C466.837 300.827 467.207 300.592 467.497 300.221C467.798 299.87 468.111 299.336 468.435 298.618L469.763 298.953L468.514 304.851L468.128 306.38L450.205 301.855C448.767 301.492 447.748 301.305 447.146 301.296C446.561 301.29 446.071 301.433 445.677 301.725C445.296 302.038 444.889 302.593 444.457 303.39L443.229 303.08L445.71 293.253L446.938 293.563Z" fill="#FEFDFC"/>
<path d="M433.618 331.131L437.183 321.555L438.374 321.999C438.333 322.703 438.334 323.22 438.378 323.55C438.421 323.88 438.539 324.182 438.732 324.457C438.919 324.748 439.261 325.041 439.76 325.337C440.268 325.656 441.074 326.02 442.175 326.431L448.543 328.801C449.677 329.224 450.718 329.574 451.665 329.853C452.613 330.133 453.409 330.3 454.052 330.355C454.706 330.432 455.237 330.418 455.646 330.312C456.064 330.228 456.444 330.074 456.786 329.851C457.138 329.649 457.451 329.379 457.725 329.038C458.016 328.703 458.278 328.22 458.514 327.588C458.749 326.956 458.843 326.309 458.795 325.645C458.763 324.988 458.566 324.204 458.203 323.294C457.841 322.384 457.417 321.664 456.932 321.133C456.448 320.602 455.816 320.192 455.039 319.902L445.974 316.527C444.58 316.008 443.584 315.711 442.985 315.635C442.402 315.566 441.898 315.655 441.474 315.903C441.06 316.173 440.593 316.682 440.075 317.43L438.884 316.986L442.431 307.46L443.622 307.903C443.581 308.607 443.586 309.116 443.635 309.43C443.678 309.759 443.796 310.062 443.989 310.336C444.176 310.627 444.519 310.921 445.017 311.217C445.51 311.53 446.323 311.897 447.457 312.319L458.053 316.265C459.09 316.651 459.931 316.945 460.575 317.148C461.219 317.351 461.763 317.425 462.208 317.369C462.669 317.319 463.064 317.125 463.394 316.787C463.733 316.47 464.103 315.972 464.504 315.291L465.792 315.77L463.893 321.539L463.341 323.021L459.479 321.279L459.256 321.583C460.024 323.234 460.532 324.521 460.779 325.443C461.02 326.382 461.14 327.275 461.137 328.123C461.146 328.993 460.993 329.849 460.679 330.691C460.353 331.566 459.958 332.305 459.494 332.907C459.041 333.531 458.507 334.024 457.892 334.386C457.272 334.764 456.582 335.005 455.824 335.11C455.081 335.221 454.243 335.195 453.307 335.031C452.366 334.883 451.223 334.559 449.878 334.058L440.716 330.647C439.598 330.231 438.776 329.961 438.25 329.839C437.723 329.717 437.292 329.686 436.956 329.745C436.621 329.805 436.298 329.952 435.989 330.188C435.696 330.429 435.303 330.891 434.809 331.574L433.618 331.131Z" fill="#FEFDFC"/>
<path d="M431.486 378.214L434.891 373.058L421.838 364.438C420.875 363.802 420.12 363.365 419.574 363.128C419.018 362.906 418.554 362.796 418.181 362.797C417.813 362.823 417.455 362.927 417.107 363.11C416.764 363.318 416.306 363.697 415.735 364.249L414.678 363.551L420.505 354.727L421.562 355.425C421.317 356.172 421.183 356.735 421.161 357.112C421.139 357.49 421.202 357.832 421.352 358.137C421.492 358.457 421.768 358.804 422.181 359.18C422.594 359.556 423.296 360.072 424.289 360.727L437.341 369.347L439.065 366.736L440.166 367.463C439.891 368.066 439.718 368.469 439.647 368.67C439.581 368.895 439.547 369.12 439.543 369.344C439.53 369.583 439.578 369.822 439.689 370.061C439.791 370.314 439.993 370.602 440.295 370.926C440.603 371.273 441.068 371.695 441.692 372.189C443.174 373.354 444.262 374.475 444.955 375.552C445.639 376.644 446.05 377.835 446.19 379.125C446.32 380.43 446.208 381.647 445.854 382.776C445.506 383.93 444.904 385.154 444.049 386.449C443.299 387.585 442.583 388.496 441.903 389.183L437.998 386.604L439.408 384.468C440.437 384.755 441.248 384.826 441.84 384.68C442.437 384.558 442.954 384.166 443.391 383.504C443.704 383.03 443.905 382.584 443.994 382.168C444.074 381.766 444.067 381.338 443.975 380.884C443.882 380.431 443.672 379.951 443.344 379.446C443.008 378.955 442.527 378.431 441.903 377.875C441.284 377.342 440.428 376.714 439.335 375.993L437.07 374.497L433.665 379.653L431.486 378.214Z" fill="#FEFDFC"/>
<path d="M405.427 381.597L405.752 381.362C405.509 379.23 405.559 377.449 405.902 376.017C406.234 374.598 406.868 373.314 407.804 372.164C408.631 371.148 409.554 370.41 410.572 369.95C411.604 369.501 412.643 369.358 413.689 369.52C414.748 369.693 415.746 370.161 416.682 370.922C418.633 372.511 419.354 374.697 418.843 377.482C418.335 380.291 416.596 383.698 413.626 387.703L414.929 388.763C416.319 389.895 417.524 390.653 418.544 391.039C419.564 391.424 420.495 391.482 421.337 391.212C422.179 390.941 422.992 390.325 423.775 389.362C424.624 388.32 425.035 387.254 425.009 386.167C424.973 385.092 424.537 383.949 423.701 382.736L425.839 380.109L428.446 382.23C428.07 384.058 427.688 385.524 427.299 386.63C426.923 387.747 426.474 388.804 425.952 389.801C425.443 390.808 424.829 391.754 424.111 392.636C423.034 393.959 421.955 394.848 420.875 395.302C419.807 395.767 418.676 395.846 417.481 395.54C416.285 395.234 414.812 394.368 413.061 392.943L406.082 387.264C405.093 386.459 404.386 385.894 403.96 385.57C403.549 385.257 403.142 384.993 402.74 384.777C402.338 384.561 401.975 384.432 401.653 384.392C401.343 384.363 401.012 384.415 400.658 384.549C400.293 384.697 399.791 385 399.152 385.457L398.17 384.658L402.641 379.163L405.427 381.597ZM411.981 386.364C414.163 383.629 415.456 381.303 415.86 379.387C416.263 377.471 415.763 375.942 414.36 374.799C413.598 374.179 412.871 373.843 412.179 373.792C411.488 373.74 410.865 373.878 410.31 374.204C409.769 374.542 409.238 375.031 408.715 375.673C407.975 376.582 407.527 377.584 407.37 378.678C407.202 379.785 407.29 380.824 407.634 381.793C407.979 382.763 408.485 383.519 409.154 384.063L411.981 386.364Z" fill="#FEFDFC"/>
<path d="M402.13 419.877C403.261 421.085 404.064 421.915 404.537 422.37C404.997 422.836 405.425 423.191 405.819 423.436C406.213 423.705 406.573 423.863 406.901 423.91C407.216 423.969 407.553 423.937 407.91 423.815C408.255 423.704 408.802 423.405 409.549 422.917L410.468 423.898L406.08 428.365L404.967 429.408L384.495 407.561C383.575 406.58 382.896 405.894 382.458 405.501C382.031 405.122 381.637 404.865 381.276 404.731C380.914 404.598 380.525 404.573 380.107 404.657C379.689 404.765 379.076 405.068 378.267 405.566L377.348 404.585L381.623 400.225L382.755 399.164L385.428 402.47L385.782 402.28C385.785 400.695 385.881 399.412 386.071 398.43C386.261 397.473 386.571 396.556 387.002 395.68C387.42 394.816 388.007 394.03 388.762 393.323C390.824 391.39 393.146 390.679 395.727 391.189C398.319 391.712 401 393.452 403.77 396.407C405.703 398.47 406.977 400.56 407.591 402.678C408.217 404.807 408.243 406.802 407.671 408.661C407.086 410.533 406.02 412.193 404.473 413.643C403.643 414.42 402.823 415.058 402.014 415.557C401.217 416.067 400.319 416.508 399.319 416.877L402.13 419.877ZM393.397 410.557C394.316 411.539 395.097 412.283 395.739 412.792C396.381 413.301 396.997 413.656 397.588 413.858C398.166 414.072 398.761 414.152 399.373 414.099C399.984 414.046 400.563 413.881 401.108 413.607C401.641 413.343 402.203 412.935 402.794 412.381C404.404 410.872 405.023 409.075 404.652 406.99C404.293 404.918 402.981 402.674 400.718 400.259C398.456 397.845 396.389 396.332 394.519 395.723C392.648 395.113 391.009 395.469 389.6 396.789C389.047 397.307 388.629 397.782 388.347 398.211C388.076 398.654 387.859 399.141 387.696 399.672C387.544 400.216 387.457 400.841 387.434 401.547C387.411 402.254 387.459 402.835 387.578 403.29C387.685 403.757 387.877 404.226 388.154 404.699C388.432 405.171 388.859 405.715 389.437 406.332L393.397 410.557Z" fill="#FEFDFC"/>
<path d="M359.811 422.416C360.034 420.841 360.333 419.518 360.707 418.448C361.067 417.387 361.584 416.384 362.258 415.437C362.941 414.504 363.821 413.652 364.896 412.882C367.772 410.823 370.558 410.127 373.253 410.795C375.959 411.476 378.516 413.499 380.925 416.864C382.415 418.944 383.36 421.045 383.759 423.167C384.145 425.298 383.957 427.291 383.194 429.147C382.432 431.002 381.15 432.575 379.349 433.864C377.939 434.874 376.579 435.51 375.267 435.773C373.956 436.036 372.728 435.987 371.581 435.625C370.431 435.287 369.271 434.639 368.1 433.683C366.925 432.75 365.637 431.349 364.235 429.48L377.429 420.033L377.159 419.656C375.979 418.009 374.803 416.749 373.63 415.878C372.454 415.031 371.217 414.587 369.919 414.544C368.617 414.526 367.29 415.002 365.935 415.971C364.79 416.791 363.914 417.735 363.307 418.804C362.695 419.897 362.281 421.249 362.063 422.863L359.811 422.416ZM369.417 428.399C370.581 429.847 371.649 430.941 372.622 431.68C373.605 432.434 374.569 432.852 375.516 432.934C376.472 433.031 377.425 432.74 378.374 432.06C379.812 431.03 380.549 429.626 380.585 427.847C380.617 426.093 379.945 424.092 378.569 421.846L369.417 428.399Z" fill="#FEFDFC"/>
<path d="M363.756 455.411L361.269 451.055L365.4 448.696L367.887 453.051L363.756 455.411ZM353.522 422.579C353.041 423.092 352.719 423.485 352.557 423.756C352.379 424.036 352.276 424.343 352.249 424.676C352.206 425.018 352.28 425.462 352.473 426.007C352.65 426.561 353.038 427.362 353.636 428.409L359.226 438.198C359.773 439.156 360.229 439.918 360.592 440.485C360.955 441.052 361.325 441.456 361.701 441.698C362.086 441.954 362.512 442.058 362.981 442.009C363.442 441.983 364.044 441.838 364.786 441.573L365.466 442.763L360.35 445.953L358.98 446.735L349.813 430.682C349.078 429.395 348.505 428.531 348.095 428.091C347.693 427.665 347.251 427.412 346.767 427.33C346.278 427.272 345.596 427.364 344.721 427.605L344.093 426.505L352.894 421.479L353.522 422.579Z" fill="#FEFDFC"/>
<path d="M348.437 462.964L346.28 458.45L350.562 456.405L352.719 460.919L348.437 462.964ZM340.651 429.558C340.135 430.034 339.786 430.4 339.604 430.658C339.407 430.924 339.283 431.222 339.231 431.551C339.163 431.889 339.205 432.335 339.357 432.892C339.493 433.456 339.82 434.28 340.339 435.366L345.186 445.512C345.66 446.504 346.058 447.296 346.378 447.886C346.698 448.476 347.036 448.905 347.393 449.173C347.757 449.456 348.173 449.591 348.643 449.576C349.104 449.584 349.713 449.484 350.471 449.274L351.06 450.508L345.738 453.307L344.319 453.986L336.37 437.348C335.732 436.014 335.226 435.113 334.85 434.645C334.481 434.192 334.059 433.908 333.585 433.792C333.102 433.698 332.417 433.74 331.529 433.916L330.984 432.776L340.106 428.418L340.651 429.558Z" fill="#FEFDFC"/>
<path d="M303.347 443.285L312.959 439.913L313.378 441.108C312.812 441.526 312.417 441.856 312.192 442.1C311.967 442.343 311.81 442.626 311.723 442.949C311.619 443.278 311.612 443.728 311.703 444.299C311.783 444.892 312.017 445.741 312.405 446.847L314.647 453.239C315.047 454.378 315.441 455.399 315.832 456.304C316.222 457.208 316.601 457.924 316.969 458.453C317.327 459.003 317.676 459.401 318.018 459.646C318.349 459.914 318.709 460.107 319.098 460.226C319.477 460.368 319.884 460.435 320.32 460.428C320.762 460.438 321.3 460.331 321.934 460.109C322.568 459.886 323.124 459.545 323.602 459.085C324.086 458.641 324.561 457.991 325.027 457.133C325.494 456.275 325.776 455.491 325.874 454.781C325.972 454.071 325.884 453.325 325.61 452.545L322.418 443.445C321.927 442.046 321.52 441.093 321.195 440.585C320.877 440.094 320.488 439.765 320.027 439.598C319.556 439.453 318.869 439.42 317.965 439.499L317.546 438.304L327.109 434.949L327.529 436.145C326.963 436.562 326.575 436.89 326.366 437.128C326.141 437.371 325.985 437.654 325.897 437.977C325.793 438.306 325.787 438.756 325.878 439.327C325.952 439.903 326.189 440.761 326.588 441.899L330.32 452.537C330.685 453.578 330.995 454.409 331.25 455.032C331.505 455.655 331.796 456.12 332.122 456.425C332.454 456.747 332.855 456.926 333.324 456.962C333.783 457.021 334.401 456.986 335.179 456.86L335.632 458.153L330 460.375L328.512 460.897L327.386 456.826L327.01 456.848C326.234 458.49 325.572 459.7 325.022 460.477C324.457 461.26 323.848 461.921 323.197 462.46C322.535 463.021 321.782 463.45 320.936 463.747C320.058 464.055 319.24 464.223 318.482 464.251C317.715 464.301 316.996 464.206 316.327 463.966C315.642 463.731 315.018 463.357 314.454 462.842C313.895 462.344 313.381 461.684 312.91 460.863C312.423 460.047 311.943 458.965 311.469 457.615L308.243 448.417C307.849 447.295 307.531 446.493 307.29 446.011C307.048 445.53 306.797 445.18 306.537 444.96C306.278 444.741 305.959 444.588 305.581 444.501C305.21 444.43 304.605 444.423 303.766 444.48L303.347 443.285Z" fill="#FEFDFC"/>
<path d="M265.742 471.944L271.884 471.266L270.167 455.719C270.04 454.571 269.894 453.711 269.726 453.14C269.542 452.571 269.33 452.143 269.091 451.858C268.836 451.591 268.527 451.383 268.163 451.232C267.784 451.1 267.2 450.991 266.41 450.905L266.271 449.646L276.782 448.486L276.921 449.745C276.19 450.034 275.672 450.29 275.367 450.515C275.062 450.739 274.841 451.006 274.701 451.316C274.545 451.628 274.454 452.063 274.429 452.621C274.404 453.179 274.457 454.049 274.587 455.231L276.304 470.778L279.413 470.435L279.558 471.746C278.918 471.92 278.498 472.045 278.299 472.119C278.083 472.212 277.888 472.329 277.713 472.469C277.521 472.612 277.368 472.802 277.256 473.04C277.126 473.28 277.034 473.62 276.978 474.059C276.907 474.518 276.881 475.145 276.9 475.941C276.952 477.825 276.785 479.378 276.4 480.6C275.997 481.824 275.344 482.902 274.442 483.834C273.522 484.767 272.514 485.46 271.419 485.91C270.309 486.379 268.983 486.699 267.441 486.869C266.088 487.019 264.93 487.051 263.967 486.967L263.453 482.315L265.997 482.035C266.434 483.009 266.898 483.678 267.389 484.04C267.865 484.421 268.497 484.568 269.285 484.481C269.85 484.418 270.321 484.288 270.698 484.091C271.058 483.895 271.383 483.616 271.672 483.255C271.962 482.893 272.197 482.425 272.376 481.851C272.538 481.278 272.634 480.574 272.663 479.738C272.677 478.921 272.612 477.862 272.468 476.56L272.17 473.862L266.028 474.54L265.742 471.944Z" fill="#FEFDFC"/>
<path d="M246.478 454.11L246.868 454.207C248.342 452.648 249.738 451.54 251.055 450.881C252.354 450.222 253.745 449.88 255.227 449.856C256.537 449.835 257.695 450.066 258.703 450.55C259.711 451.05 260.49 451.753 261.039 452.658C261.588 453.58 261.873 454.644 261.892 455.85C261.933 458.367 260.724 460.326 258.264 461.727C255.787 463.147 252.061 464.009 247.084 464.314L247.111 465.994C247.14 467.786 247.335 469.197 247.697 470.225C248.058 471.254 248.613 472.003 249.362 472.474C250.111 472.944 251.106 473.169 252.347 473.149C253.691 473.127 254.771 472.756 255.587 472.036C256.385 471.317 256.98 470.247 257.371 468.827L260.757 468.772L260.812 472.133C259.171 473.021 257.803 473.673 256.706 474.087C255.61 474.518 254.512 474.855 253.413 475.097C252.314 475.356 251.196 475.495 250.058 475.514C248.352 475.541 246.977 475.288 245.934 474.753C244.892 474.236 244.103 473.421 243.567 472.309C243.032 471.197 242.746 469.512 242.71 467.255L242.564 458.259C242.543 456.983 242.52 456.079 242.494 455.545C242.468 455.028 242.409 454.546 242.315 454.1C242.222 453.653 242.087 453.293 241.91 453.02C241.733 452.764 241.48 452.544 241.149 452.36C240.801 452.176 240.247 451.987 239.485 451.792L239.464 450.526L246.548 450.411L246.478 454.11ZM247.049 462.194C250.547 462.103 253.159 461.595 254.885 460.67C256.611 459.746 257.46 458.379 257.43 456.569C257.414 455.587 257.204 454.815 256.798 454.252C256.392 453.69 255.886 453.302 255.279 453.088C254.673 452.891 253.956 452.799 253.129 452.812C251.957 452.831 250.901 453.133 249.963 453.717C249.007 454.301 248.269 455.037 247.749 455.925C247.229 456.812 246.976 457.687 246.99 458.549L247.049 462.194Z" fill="#FEFDFC"/>
<path d="M214.98 476.054C214.777 477.696 214.652 478.844 214.606 479.498C214.543 480.151 214.544 480.706 214.609 481.166C214.654 481.641 214.764 482.019 214.938 482.301C215.094 482.581 215.334 482.819 215.657 483.015C215.963 483.209 216.543 483.437 217.396 483.698L217.231 485.033L210.99 484.523L209.476 484.336L213.146 454.622C213.31 453.287 213.403 452.326 213.424 451.738C213.442 451.168 213.387 450.7 213.258 450.337C213.129 449.974 212.899 449.659 212.567 449.392C212.216 449.14 211.59 448.863 210.69 448.561L210.855 447.227L216.942 447.718L218.481 447.908L217.654 452.078L218.026 452.229C219.245 451.216 220.293 450.468 221.169 449.986C222.025 449.518 222.928 449.169 223.877 448.939C224.809 448.707 225.788 448.654 226.814 448.781C229.62 449.127 231.653 450.455 232.913 452.765C234.172 455.091 234.553 458.264 234.056 462.284C233.71 465.089 232.92 467.406 231.687 469.234C230.452 471.078 228.937 472.376 227.142 473.127C225.33 473.876 223.372 474.12 221.268 473.86C220.139 473.721 219.124 473.5 218.224 473.198C217.321 472.913 216.408 472.505 215.484 471.974L214.98 476.054ZM216.545 463.378C216.38 464.712 216.308 465.789 216.329 466.607C216.349 467.426 216.471 468.127 216.694 468.711C216.9 469.292 217.219 469.8 217.652 470.236C218.084 470.671 218.581 471.01 219.141 471.253C219.685 471.494 220.359 471.664 221.163 471.763C223.352 472.034 225.129 471.359 226.493 469.738C227.854 468.135 228.738 465.691 229.143 462.407C229.549 459.122 229.387 456.567 228.657 454.74C227.928 452.913 226.605 451.881 224.689 451.645C223.936 451.552 223.305 451.535 222.794 451.593C222.281 451.669 221.768 451.814 221.255 452.028C220.74 452.26 220.204 452.593 219.647 453.028C219.089 453.463 218.674 453.872 218.401 454.255C218.111 454.636 217.873 455.084 217.688 455.6C217.503 456.115 217.358 456.792 217.255 457.63L216.545 463.378Z" fill="#FEFDFC"/>
<path d="M185.787 445.259C187.149 444.425 188.364 443.81 189.431 443.415C190.482 443.016 191.589 442.774 192.753 442.69C193.912 442.622 195.133 442.758 196.416 443.098C199.848 444.007 202.168 445.718 203.375 448.23C204.577 450.76 204.647 454.032 203.583 458.048C202.926 460.53 201.904 462.604 200.518 464.27C199.116 465.931 197.453 467.06 195.53 467.656C193.607 468.253 191.57 468.266 189.421 467.697C187.738 467.252 186.376 466.606 185.334 465.759C184.292 464.913 183.545 463.93 183.092 462.812C182.618 461.706 182.377 460.394 182.369 458.876C182.34 457.371 182.6 455.478 183.15 453.199L198.896 457.368L199.015 456.918C199.535 454.952 199.758 453.237 199.682 451.772C199.585 450.32 199.138 449.079 198.341 448.048C197.523 447.029 196.306 446.305 194.69 445.877C193.324 445.516 192.033 445.441 190.818 445.654C189.581 445.88 188.269 446.424 186.882 447.287L185.787 445.259ZM187.299 456.518C186.923 458.344 186.76 459.869 186.81 461.095C186.855 462.337 187.148 463.351 187.689 464.136C188.226 464.938 189.061 465.489 190.194 465.789C191.91 466.243 193.468 465.916 194.867 464.806C196.245 463.709 197.363 461.91 198.222 459.409L187.299 456.518Z" fill="#FEFDFC"/>
<path d="M163.027 469.56L164.783 464.845L169.255 466.51L167.499 471.225L163.027 469.56ZM181.733 440.578C181.029 440.537 180.52 440.541 180.206 440.591C179.877 440.634 179.574 440.752 179.3 440.945C179.009 441.132 178.715 441.474 178.419 441.973C178.106 442.465 177.739 443.279 177.317 444.413L173.371 455.009C172.985 456.046 172.691 456.886 172.488 457.53C172.285 458.174 172.211 458.719 172.267 459.164C172.317 459.625 172.511 460.02 172.849 460.349C173.166 460.688 173.664 461.058 174.345 461.46L173.866 462.748L168.122 460.858L166.639 460.306L173.109 442.929C173.628 441.536 173.925 440.539 174.001 439.94C174.07 439.357 173.981 438.854 173.733 438.429C173.463 438.015 172.954 437.549 172.206 437.031L172.65 435.84L182.176 439.387L181.733 440.578Z" fill="#FEFDFC"/>
<path d="M147.343 462.506L149.442 457.95L153.763 459.941L151.664 464.496L147.343 462.506ZM168.11 435.095C167.413 435.001 166.906 434.967 166.591 434.993C166.26 435.011 165.951 435.106 165.663 435.277C165.36 435.441 165.042 435.76 164.71 436.233C164.363 436.699 163.937 437.48 163.432 438.576L158.716 448.815C158.255 449.817 157.899 450.63 157.649 451.255C157.399 451.88 157.285 452.416 157.307 452.863C157.322 453.325 157.485 453.732 157.798 454.085C158.087 454.446 158.555 454.851 159.202 455.301L158.628 456.545L153.059 454.237L151.627 453.577L159.36 436.786C159.98 435.44 160.35 434.472 160.47 433.882C160.583 433.307 160.532 432.8 160.318 432.36C160.08 431.928 159.609 431.426 158.904 430.855L159.434 429.704L168.64 433.944L168.11 435.095Z" fill="#FEFDFC"/>
<path d="M133.786 415.021L142.521 420.263L141.869 421.349C141.186 421.18 140.679 421.087 140.348 421.069C140.017 421.052 139.699 421.112 139.395 421.251C139.075 421.381 138.725 421.663 138.344 422.098C137.939 422.538 137.434 423.261 136.831 424.266L133.346 430.074C132.725 431.109 132.191 432.065 131.745 432.943C131.298 433.821 130.989 434.57 130.818 435.191C130.622 435.817 130.54 436.341 130.569 436.76C130.575 437.186 130.656 437.587 130.813 437.962C130.946 438.343 131.154 438.7 131.438 439.031C131.713 439.377 132.138 439.722 132.715 440.068C133.291 440.414 133.909 440.624 134.568 440.698C135.219 440.787 136.023 440.737 136.98 440.548C137.938 440.359 138.721 440.075 139.33 439.697C139.939 439.318 140.457 438.774 140.883 438.065L145.845 429.796C146.608 428.525 147.081 427.603 147.264 427.03C147.439 426.471 147.443 425.961 147.278 425.5C147.089 425.045 146.675 424.495 146.036 423.85L146.688 422.764L155.378 427.979L154.726 429.066C154.044 428.897 153.544 428.808 153.228 428.799C152.897 428.782 152.579 428.842 152.274 428.981C151.955 429.111 151.605 429.393 151.224 429.828C150.827 430.253 150.319 430.984 149.698 432.018L143.897 441.684C143.33 442.629 142.888 443.399 142.571 443.994C142.255 444.588 142.083 445.108 142.057 445.554C142.021 446.015 142.139 446.438 142.411 446.822C142.66 447.213 143.081 447.666 143.675 448.184L142.97 449.359L137.663 446.445L136.31 445.633L138.723 442.166L138.466 441.891C136.707 442.343 135.353 442.606 134.404 442.68C133.44 442.745 132.543 442.699 131.713 442.542C130.858 442.392 130.047 442.086 129.278 441.624C128.48 441.145 127.829 440.624 127.323 440.059C126.794 439.5 126.408 438.887 126.166 438.219C125.909 437.542 125.798 436.822 125.834 436.059C125.86 435.311 126.039 434.494 126.371 433.607C126.687 432.712 127.213 431.651 127.949 430.424L132.965 422.066C133.577 421.047 133.991 420.29 134.207 419.796C134.423 419.303 134.532 418.886 134.535 418.546C134.538 418.206 134.452 417.863 134.278 417.517C134.095 417.186 133.714 416.716 133.134 416.107L133.786 415.021Z" fill="#FEFDFC"/>
<path d="M79.0502 395.029L83.2526 399.559L94.7203 388.922C95.5669 388.136 96.1699 387.506 96.5292 387.032C96.8768 386.545 97.094 386.12 97.1808 385.758C97.2432 385.394 97.2267 385.021 97.1313 384.64C97.0115 384.257 96.751 383.723 96.3499 383.037L97.2787 382.175L104.47 389.928L103.541 390.79C102.874 390.374 102.359 390.111 101.998 390C101.636 389.889 101.289 389.87 100.957 389.942C100.613 390.003 100.21 390.189 99.7469 390.501C99.2839 390.813 98.6165 391.373 97.7446 392.182L86.2769 402.82L88.4044 405.113L87.4377 406.01C86.9165 405.6 86.5666 405.337 86.388 405.221C86.185 405.103 85.9749 405.016 85.7575 404.959C85.5284 404.889 85.2848 404.88 85.0267 404.932C84.7569 404.97 84.4289 405.098 84.0427 405.315C83.6321 405.532 83.1127 405.884 82.4845 406.373C81.0016 407.537 79.6547 408.328 78.4438 408.746C77.2211 409.151 75.9665 409.269 74.6801 409.099C73.3819 408.916 72.226 408.519 71.2122 407.907C70.1741 407.295 69.1276 406.42 68.0726 405.283C67.1465 404.285 66.4306 403.374 65.9249 402.55L69.3558 399.367L71.0965 401.244C70.5737 402.175 70.313 402.946 70.3145 403.556C70.2916 404.165 70.5498 404.76 71.089 405.341C71.4758 405.758 71.8609 406.059 72.2443 406.245C72.6159 406.417 73.0331 406.512 73.4959 406.529C73.9587 406.547 74.4744 406.456 75.0429 406.258C75.5996 406.047 76.2223 405.705 76.9109 405.231C77.5752 404.755 78.3875 404.072 79.3479 403.182L81.3381 401.335L77.1357 396.805L79.0502 395.029Z" fill="#FEFDFC"/>
<path d="M81.9764 368.827L82.1264 369.2C84.2533 369.479 85.9701 369.958 87.2766 370.637C88.5727 371.302 89.6655 372.228 90.5549 373.414C91.3409 374.462 91.8339 375.536 92.0338 376.635C92.22 377.745 92.1079 378.788 91.6977 379.764C91.2737 380.75 90.5791 381.605 89.6138 382.329C87.6006 383.838 85.3047 384.009 82.7262 382.84C80.1235 381.668 77.2381 379.157 74.0701 375.306L72.7257 376.315C71.2916 377.39 70.2643 378.376 69.6438 379.273C69.0233 380.169 68.7423 381.058 68.801 381.941C68.8596 382.823 69.2612 383.761 70.0058 384.754C70.8124 385.829 71.7466 386.486 72.8084 386.724C73.8598 386.948 75.075 386.801 76.4539 386.284L78.486 388.994L75.7972 391.01C74.1149 390.204 72.7843 389.478 71.8052 388.834C70.8124 388.199 69.8955 387.508 69.0543 386.76C68.1994 386.022 67.4307 385.198 66.7481 384.288C65.7243 382.923 65.1227 381.661 64.9435 380.503C64.7504 379.355 64.9469 378.238 65.5329 377.152C66.119 376.067 67.3152 374.846 69.1215 373.491L76.3194 368.093C77.3398 367.328 78.0586 366.778 78.4757 366.444C78.879 366.119 79.2341 365.789 79.5409 365.451C79.8477 365.113 80.0597 364.792 80.1769 364.489C80.2803 364.196 80.3096 363.862 80.2648 363.486C80.2097 363.096 80.0373 362.536 79.7477 361.805L80.7612 361.045L85.0117 366.712L81.9764 368.827ZM75.7662 374.034C77.8931 376.813 79.8374 378.63 81.5989 379.485C83.3605 380.339 84.9652 380.224 86.413 379.138C87.199 378.549 87.7006 377.925 87.9178 377.266C88.1349 376.608 88.1522 375.97 87.9695 375.353C87.773 374.746 87.4265 374.112 86.9301 373.45C86.2269 372.512 85.3633 371.835 84.3395 371.418C83.3053 370.987 82.2763 370.822 81.2525 370.922C80.2286 371.021 79.372 371.33 78.6825 371.847L75.7662 374.034Z" fill="#FEFDFC"/>
<path d="M45.6482 356.598C44.2086 357.409 43.2123 357.99 42.6594 358.341C42.098 358.677 41.6519 359.007 41.3212 359.332C40.967 359.65 40.7281 359.962 40.6045 360.268C40.4725 360.56 40.4234 360.894 40.4574 361.27C40.4829 361.631 40.6435 362.232 40.9393 363.072L39.7696 363.731L36.4789 358.414L35.7314 357.087L61.7788 342.417C62.9485 341.758 63.7755 341.263 64.2601 340.931C64.7296 340.607 65.0721 340.286 65.2875 339.967C65.503 339.648 65.6195 339.276 65.6371 338.851C65.6312 338.42 65.4827 337.753 65.1916 336.851L66.3612 336.192L69.576 341.374L70.3361 342.723L66.4952 344.531L66.5952 344.919C68.132 345.298 69.3538 345.696 70.2606 346.114C71.144 346.525 71.9594 347.043 72.707 347.669C73.4461 348.28 74.069 349.035 74.5757 349.935C75.9608 352.394 76.0995 354.815 74.9917 357.197C73.869 359.587 71.5456 361.775 68.0216 363.759C65.5623 365.144 63.233 365.884 61.0337 365.977C58.8193 366.078 56.8784 365.631 55.211 364.634C53.5351 363.622 52.1777 362.194 51.1389 360.35C50.5815 359.36 50.1572 358.414 49.8661 357.511C49.56 356.617 49.3461 355.641 49.2246 354.584L45.6482 356.598ZM56.7599 350.34C55.5903 350.999 54.6826 351.579 54.0369 352.081C53.3913 352.583 52.9003 353.096 52.564 353.622C52.2193 354.132 52.0002 354.69 51.9068 355.295C51.8134 355.901 51.8352 356.501 51.9724 357.095C52.1012 357.675 52.3641 358.317 52.761 359.022C53.8421 360.941 55.4378 361.968 57.5482 362.103C59.6436 362.246 62.1309 361.507 65.0101 359.885C67.8892 358.264 69.8463 356.618 70.8814 354.949C71.9164 353.28 71.961 351.605 71.0151 349.926C70.6434 349.266 70.2827 348.748 69.9328 348.372C69.5679 348.005 69.1472 347.679 68.6708 347.394C68.1794 347.118 67.5938 346.885 66.914 346.695C66.2342 346.505 65.6595 346.414 65.1898 346.422C64.7116 346.414 64.2106 346.489 63.6866 346.646C63.1626 346.803 62.5332 347.088 61.7984 347.502L56.7599 350.34Z" fill="#FEFDFC"/>
<path d="M52.9597 314.868C54.4398 315.468 55.6559 316.08 56.6078 316.704C57.5534 317.311 58.4058 318.058 59.1649 318.944C59.908 319.836 60.5242 320.899 61.0134 322.133C62.3222 325.433 62.3248 328.315 61.0211 330.779C59.7014 333.25 57.1109 335.25 53.2494 336.781C50.8621 337.728 48.5867 338.139 46.4234 338.014C44.2537 337.873 42.3577 337.207 40.7353 336.014C39.1129 334.822 37.8919 333.192 37.0723 331.125C36.4306 329.507 36.1406 328.027 36.2022 326.687C36.2638 325.346 36.6098 324.161 37.2402 323.132C37.8483 322.094 38.7602 321.12 39.976 320.212C41.1694 319.293 42.8461 318.378 45.0061 317.466L51.0102 332.607L51.4428 332.436C53.3335 331.686 54.8451 330.846 55.9778 329.914C57.088 328.974 57.8211 327.876 58.1769 326.623C58.5104 325.359 58.369 323.951 57.7527 322.396C57.2317 321.083 56.5244 320 55.6307 319.149C54.7147 318.289 53.4974 317.557 51.9788 316.954L52.9597 314.868ZM44.803 322.775C43.1107 323.558 41.7865 324.333 40.8304 325.102C39.8582 325.876 39.2172 326.715 38.9072 327.616C38.5812 328.524 38.6342 329.523 39.0663 330.613C39.7207 332.263 40.9098 333.321 42.6336 333.787C44.335 334.244 46.4464 334.074 48.9677 333.278L44.803 322.775Z" fill="#FEFDFC"/>
<path d="M20.1394 310.852L24.9635 309.478L26.266 314.054L21.4419 315.427L20.1394 310.852ZM54.4656 308.768C54.0826 308.178 53.7788 307.772 53.5541 307.549C53.3247 307.31 53.0514 307.137 52.7342 307.03C52.4123 306.906 51.9637 306.873 51.3883 306.929C50.8082 306.969 49.938 307.154 48.7775 307.484L37.9357 310.57C36.8747 310.872 36.0257 311.132 35.3886 311.349C34.7515 311.567 34.2706 311.829 33.946 312.136C33.6048 312.449 33.4019 312.838 33.3376 313.304C33.2519 313.759 33.2489 314.378 33.3287 315.162L32.0107 315.537L30.1376 309.806L29.7058 308.29L47.4854 303.228C48.9111 302.822 49.8869 302.473 50.4128 302.18C50.9221 301.892 51.274 301.523 51.4686 301.073C51.6419 300.611 51.7159 299.927 51.6908 299.02L52.9092 298.674L55.6841 308.421L54.4656 308.768Z" fill="#FEFDFC"/>
<path d="M16.243 294.224L21.154 293.204L22.1212 297.862L17.2102 298.882L16.243 294.224ZM50.6299 294.636C50.2907 294.02 50.0172 293.592 49.8092 293.354C49.5978 293.099 49.3377 292.906 49.0292 292.776C48.7171 292.63 48.2721 292.564 47.6942 292.578C47.1127 292.576 46.2313 292.697 45.05 292.943L34.0128 295.234C32.9327 295.459 32.0671 295.656 31.4159 295.826C30.7648 295.997 30.2661 296.223 29.92 296.507C29.557 296.793 29.3265 297.167 29.2285 297.627C29.1101 298.074 29.0622 298.692 29.0849 299.479L27.7432 299.758L26.2907 293.907L25.97 292.362L44.0699 288.604C45.5213 288.303 46.5199 288.025 47.0656 287.771C47.5945 287.52 47.9723 287.178 48.199 286.743C48.4053 286.296 48.5288 285.619 48.5695 284.712L49.8099 284.455L51.8703 294.378L50.6299 294.636Z" fill="#FEFDFC"/>
<path d="M45.9878 255.028L47.0065 265.215L45.7396 265.341C45.4655 264.69 45.2363 264.225 45.0519 263.948C44.8674 263.67 44.6279 263.451 44.3331 263.289C44.0366 263.109 43.5988 262.996 43.0197 262.95C42.4216 262.888 41.5365 262.915 40.3645 263.033L33.5906 263.71C32.384 263.831 31.293 263.975 30.3174 264.142C29.3418 264.309 28.5524 264.51 27.9491 264.744C27.3269 264.963 26.8555 265.21 26.5349 265.486C26.1953 265.746 25.9213 266.052 25.7127 266.404C25.4852 266.74 25.3232 267.122 25.2266 267.549C25.1129 267.979 25.0896 268.529 25.1568 269.202C25.2241 269.874 25.4257 270.498 25.7618 271.073C26.0807 271.651 26.6038 272.269 27.3312 272.927C28.0586 273.586 28.7575 274.047 29.428 274.31C30.0985 274.574 30.8474 274.665 31.6748 274.582L41.3185 273.617C42.8008 273.469 43.8281 273.297 44.4003 273.1C44.9553 272.906 45.369 272.603 45.6414 272.193C45.8947 271.767 46.0895 271.104 46.2257 270.202L47.4925 270.075L48.506 280.21L47.2392 280.337C46.9651 279.686 46.7367 279.23 46.554 278.969C46.3696 278.692 46.13 278.472 45.8353 278.31C45.5388 278.131 45.101 278.018 44.5219 277.971C43.941 277.908 43.0473 277.936 41.8407 278.057L30.5682 279.184C29.4651 279.294 28.5791 279.4 27.9103 279.502C27.2416 279.604 26.7193 279.778 26.3436 280.024C25.9506 280.272 25.6808 280.621 25.5343 281.071C25.3688 281.506 25.2559 282.118 25.1956 282.907L23.8253 283.044L22.9876 277.017L22.8299 275.44L27.0727 275.303L27.1399 274.931C25.7196 273.785 24.6949 272.851 24.0658 272.131C23.4349 271.393 22.9334 270.642 22.561 269.879C22.1698 269.1 21.9293 268.262 21.8397 267.366C21.7466 266.435 21.7759 265.597 21.9276 264.85C22.0603 264.088 22.3232 263.409 22.7162 262.813C23.1074 262.199 23.6211 261.678 24.2571 261.249C24.8759 260.821 25.642 260.475 26.5556 260.209C27.4674 259.927 28.6386 259.714 30.0692 259.571L39.8163 258.596C41.0056 258.477 41.864 258.356 42.3914 258.234C42.9189 258.112 43.3205 257.95 43.5963 257.748C43.872 257.546 44.097 257.271 44.2711 256.923C44.4279 256.577 44.5779 255.987 44.7209 255.155L45.9878 255.028Z" fill="#FEFDFC"/>
<path d="M27.3891 211.82L26.6018 217.949L42.1163 219.942C43.2618 220.089 44.1317 220.149 44.7261 220.121C45.3228 220.076 45.7881 219.971 46.1222 219.805C46.4414 219.62 46.7169 219.369 46.9489 219.051C47.166 218.714 47.4094 218.172 47.6792 217.425L48.9358 217.586L47.5884 228.074L46.3319 227.913C46.2234 227.134 46.096 226.57 45.9496 226.221C45.8033 225.873 45.5958 225.594 45.3271 225.386C45.0607 225.16 44.6594 224.97 44.1233 224.814C43.5872 224.658 42.7294 224.504 41.5497 224.353L26.0353 222.36L25.6367 225.463L24.3288 225.295C24.3097 224.632 24.2877 224.195 24.2627 223.983C24.2229 223.752 24.1552 223.535 24.0597 223.331C23.9664 223.111 23.8174 222.918 23.6127 222.753C23.4102 222.57 23.1019 222.4 22.6877 222.243C22.2586 222.066 21.6552 221.893 20.8776 221.724C19.0339 221.33 17.5637 220.803 16.4671 220.14C15.3726 219.461 14.4788 218.573 13.7856 217.476C13.0946 216.362 12.6591 215.22 12.4792 214.05C12.2844 212.86 12.2859 211.496 12.4835 209.958C12.657 208.607 12.8982 207.474 13.207 206.558L17.8485 207.154L17.5224 209.693C16.472 209.888 15.7132 210.181 15.2458 210.573C14.7635 210.946 14.4718 211.525 14.3708 212.312C14.2983 212.876 14.3137 213.364 14.4171 213.777C14.5226 214.173 14.717 214.554 15.0001 214.921C15.2832 215.288 15.6829 215.626 16.1992 215.935C16.7177 216.228 17.3796 216.487 18.1848 216.712C18.9751 216.917 20.0199 217.104 21.3192 217.271L24.0118 217.617L24.7991 211.488L27.3891 211.82Z" fill="#FEFDFC"/>
<path d="M49.307 197.284L49.1186 197.639C50.2741 199.446 51.0125 201.068 51.3339 202.505C51.6591 203.926 51.6542 205.358 51.3193 206.802C51.0233 208.078 50.5188 209.146 49.806 210.007C49.0764 210.864 48.2063 211.45 47.1956 211.764C46.1682 212.074 45.0668 212.093 43.8915 211.82C41.4401 211.251 39.8316 209.604 39.066 206.879C38.2875 204.133 38.3519 200.308 39.2593 195.405L37.6222 195.025C35.876 194.62 34.4602 194.469 33.3749 194.571C32.2896 194.673 31.4281 195.03 30.7905 195.643C30.1529 196.256 29.6939 197.167 29.4134 198.376C29.1096 199.686 29.2085 200.823 29.7099 201.789C30.2153 202.738 31.1096 203.573 32.3929 204.296L31.6276 207.595L28.3534 206.836C27.8878 205.029 27.5866 203.544 27.4497 202.379C27.296 201.211 27.2346 200.065 27.2656 198.939C27.2798 197.81 27.4155 196.692 27.6725 195.583C28.0581 193.921 28.6364 192.649 29.4074 191.766C30.1616 190.879 31.1428 190.311 32.3511 190.06C33.5593 189.81 35.2632 189.939 37.4627 190.45L46.2274 192.483C47.4699 192.771 48.3533 192.967 48.8777 193.071C49.3853 193.171 49.8671 193.23 50.3232 193.247C50.7792 193.264 51.161 193.22 51.4686 193.115C51.7594 193.005 52.0342 192.812 52.2929 192.536C52.5555 192.243 52.8732 191.751 53.246 191.059L54.4801 191.345L52.8793 198.246L49.307 197.284ZM41.3245 195.884C40.5674 199.3 40.4288 201.958 40.9085 203.856C41.3882 205.754 42.5096 206.908 44.2726 207.317C45.2296 207.539 46.03 207.521 46.6737 207.263C47.3173 207.006 47.8165 206.608 48.1711 206.071C48.5089 205.53 48.7712 204.857 48.9582 204.051C49.2231 202.909 49.1855 201.812 48.8457 200.76C48.5097 199.692 47.9739 198.798 47.2384 198.079C46.5028 197.359 45.7152 196.902 44.8757 196.708L41.3245 195.884Z" fill="#FEFDFC"/>
<path d="M35.4871 161.428C33.9411 160.838 32.856 160.443 32.2317 160.242C31.6136 160.024 31.0737 159.892 30.612 159.845C30.1403 159.776 29.7468 159.792 29.4315 159.893C29.1224 159.978 28.8339 160.154 28.5661 160.421C28.3044 160.671 27.9445 161.18 27.4862 161.946L26.2301 161.467L28.2185 155.529L28.7622 154.103L56.7355 164.774C57.9917 165.253 58.9027 165.573 59.4687 165.734C60.0186 165.888 60.4853 165.946 60.8688 165.908C61.2523 165.87 61.6133 165.722 61.9516 165.463C62.28 165.183 62.6987 164.641 63.2076 163.839L64.4637 164.319L62.5306 170.112L61.9777 171.561L58.1266 169.76L57.8917 170.085C58.5837 171.512 59.0591 172.708 59.3179 173.673C59.5668 174.617 59.6895 175.577 59.6859 176.553C59.6886 177.514 59.5056 178.477 59.137 179.443C58.1295 182.084 56.3539 183.741 53.8102 184.412C51.2504 185.077 48.0783 184.688 44.2937 183.245C41.6526 182.237 39.5923 180.916 38.1127 179.282C36.617 177.641 35.7192 175.86 35.4194 173.938C35.1257 171.999 35.3567 170.04 36.1123 168.059C36.5178 166.996 36.975 166.064 37.4838 165.261C37.9766 164.453 38.5913 163.664 39.328 162.893L35.4871 161.428ZM47.4205 165.98C46.1643 165.501 45.1363 165.174 44.3364 164.998C43.5365 164.822 42.8266 164.772 42.2069 164.849C41.5932 164.91 41.0233 165.099 40.497 165.415C39.9706 165.73 39.5225 166.131 39.1526 166.618C38.7889 167.088 38.4626 167.701 38.1739 168.458C37.3875 170.519 37.6179 172.406 38.8651 174.118C40.0962 175.823 42.2577 177.266 45.3498 178.445C48.4418 179.625 50.962 180.079 52.9103 179.807C54.8586 179.536 56.1768 178.498 56.8648 176.695C57.1351 175.986 57.303 175.377 57.3684 174.867C57.4177 174.351 57.3996 173.818 57.3139 173.269C57.2121 172.713 57.0168 172.113 56.728 171.468C56.4391 170.823 56.1413 170.322 55.8347 169.965C55.5342 169.592 55.1558 169.254 54.6996 168.951C54.2433 168.648 53.6207 168.346 52.8316 168.045L47.4205 165.98Z" fill="#FEFDFC"/>
<path d="M72.3895 140.462C72.8732 141.984 73.1791 143.311 73.307 144.442C73.4432 145.557 73.4129 146.69 73.2162 147.84C73.0043 148.981 72.58 150.134 71.943 151.299C70.239 154.414 68.0227 156.256 65.2942 156.827C62.5505 157.389 59.3565 156.673 55.7122 154.679C53.4591 153.447 51.6898 151.958 50.4043 150.214C49.1272 148.454 48.4293 146.57 48.3106 144.56C48.192 142.55 48.6663 140.57 49.7334 138.619C50.5688 137.092 51.5222 135.923 52.5934 135.115C53.6646 134.306 54.7973 133.815 55.9915 133.643C57.1789 133.448 58.5104 133.528 59.986 133.883C61.4548 134.215 63.2298 134.921 65.3112 136.001L57.4941 150.291L57.9024 150.514C59.6868 151.49 61.2989 152.117 62.7388 152.393C64.1719 152.647 65.4844 152.51 66.6763 151.984C67.8614 151.433 68.8551 150.425 69.6575 148.958C70.3358 147.718 70.717 146.483 70.801 145.251C70.8782 143.997 70.6639 142.593 70.1582 141.039L72.3895 140.462ZM61.0958 139.235C59.4131 138.433 57.9707 137.909 56.7687 137.664C55.5516 137.411 54.4971 137.453 53.6053 137.79C52.6984 138.119 51.9637 138.798 51.4012 139.826C50.5492 141.383 50.4943 142.974 51.2365 144.598C51.9719 146.199 53.4509 147.715 55.6735 149.147L61.0958 139.235Z" fill="#FEFDFC"/>
<path d="M54.2071 112.781L58.3702 115.589L55.7062 119.538L51.5431 116.729L54.2071 112.781ZM77.9418 137.725C78.1466 137.052 78.2618 136.557 78.2875 136.241C78.3228 135.911 78.2791 135.59 78.1564 135.278C78.0433 134.952 77.7797 134.587 77.3655 134.183C76.961 133.764 76.258 133.217 75.2566 132.541L65.9003 126.228C64.9848 125.611 64.2383 125.128 63.6611 124.78C63.0838 124.432 62.5728 124.233 62.1279 124.183C61.6687 124.123 61.2398 124.219 60.8411 124.47C60.4378 124.698 59.9617 125.095 59.4129 125.661L58.2756 124.894L61.456 119.764L62.3392 118.455L77.6825 128.807C78.9128 129.637 79.8098 130.159 80.3734 130.372C80.9228 130.577 81.4323 130.608 81.9022 130.467C82.3674 130.302 82.9391 129.918 83.6174 129.313L84.6689 130.023L78.9933 138.435L77.9418 137.725Z" fill="#FEFDFC"/>
<path d="M64.999 99.263L68.9113 102.373L65.9618 106.083L62.0495 102.974L64.999 99.263ZM86.6108 125.853C86.8662 125.201 87.0189 124.719 87.0689 124.408C87.1296 124.083 87.1112 123.761 87.0136 123.442C86.9267 123.11 86.6935 122.727 86.314 122.294C85.9451 121.847 85.2901 121.249 84.349 120.501L75.5564 113.512C74.696 112.828 73.9929 112.292 73.4472 111.902C72.9015 111.512 72.4099 111.275 71.9725 111.19C71.5216 111.095 71.0886 111.157 70.6736 111.375C70.2557 111.57 69.7526 111.927 69.1642 112.446L68.0953 111.597L71.6488 106.754L72.6266 105.523L87.0457 116.985C88.2019 117.904 89.0513 118.491 89.5939 118.747C90.123 118.992 90.6262 119.063 91.1033 118.959C91.5776 118.832 92.1747 118.495 92.8945 117.948L93.8826 118.733L87.5989 126.639L86.6108 125.853Z" fill="#FEFDFC"/>
<path d="M114.104 97.1446L106.941 104.388L106.04 103.497C106.366 102.874 106.576 102.403 106.672 102.086C106.768 101.768 106.784 101.445 106.722 101.116C106.671 100.775 106.48 100.368 106.148 99.8948C105.816 99.3969 105.233 98.7359 104.4 97.9118L99.5835 93.1487C98.7256 92.3004 97.9231 91.5553 97.1761 90.9135C96.429 90.2717 95.7743 89.7939 95.2119 89.4801C94.6493 89.142 94.1607 88.9376 93.7459 88.8667C93.3309 88.7716 92.9226 88.7556 92.5207 88.8187C92.1187 88.8575 91.7233 88.9755 91.3343 89.1727C90.9332 89.3578 90.4962 89.6893 90.0236 90.1673C89.5509 90.6453 89.2005 91.1957 88.9724 91.8186C88.7321 92.4293 88.5903 93.2223 88.5469 94.1976C88.5036 95.1729 88.5936 96.0012 88.8168 96.6825C89.04 97.3638 89.4457 97.9953 90.034 98.577L96.8911 105.358C97.9451 106.4 98.7289 107.078 99.2426 107.392C99.744 107.694 100.238 107.82 100.726 107.768C101.213 107.692 101.845 107.421 102.622 106.953L103.523 107.844L96.3968 115.05L95.496 114.159C95.8216 113.536 96.0262 113.072 96.1098 112.767C96.2055 112.449 96.222 112.126 96.1592 111.797C96.1086 111.456 95.9174 111.049 95.5856 110.576C95.266 110.09 94.6773 109.423 93.8194 108.575L85.8041 100.648C85.0197 99.8726 84.3764 99.2607 83.8742 98.8125C83.372 98.3644 82.9072 98.0745 82.4799 97.9428C82.0403 97.799 81.6016 97.8136 81.1638 97.9867C80.7259 98.1354 80.1852 98.437 79.5418 98.8916L78.5674 97.9281L82.656 93.4627L83.7649 92.3413L86.5615 95.5067L86.8896 95.3221C86.8672 93.5062 86.9327 92.1286 87.0859 91.1892C87.2512 90.2376 87.5084 89.3769 87.8576 88.6071C88.2066 87.8129 88.6962 87.0972 89.3264 86.4599C89.9809 85.7981 90.6423 85.2886 91.3107 84.9314C91.9789 84.5498 92.6662 84.3205 93.3727 84.2434C94.0913 84.1541 94.8168 84.2171 95.5493 84.4324C96.2696 84.6356 97.0212 85.0031 97.8042 85.535C98.5993 86.0547 99.5055 86.8174 100.523 87.8234L107.453 94.677C108.299 95.5133 108.936 96.0948 109.364 96.4215C109.793 96.7481 110.172 96.9532 110.501 97.0367C110.831 97.1202 111.184 97.1182 111.562 97.0308C111.927 96.9312 112.474 96.6722 113.203 96.2538L114.104 97.1446Z" fill="#FEFDFC"/>
<path d="M135.089 54.9877L129.899 58.3244L138.346 71.4637C138.969 72.4338 139.483 73.137 139.886 73.5734C140.304 74.0005 140.683 74.2886 141.025 74.4375C141.371 74.5626 141.74 74.6117 142.132 74.5848C142.529 74.5342 143.1 74.3718 143.845 74.0977L144.529 75.1619L135.646 80.8721L134.962 79.808C135.488 79.2247 135.837 78.765 136.009 78.4289C136.182 78.0928 136.262 77.7551 136.248 77.4159C136.249 77.0674 136.137 76.6382 135.912 76.1284C135.686 75.6185 135.252 74.8641 134.61 73.8651L126.163 60.7258L123.536 62.4151L122.824 61.3075C123.318 60.867 123.638 60.5691 123.784 60.414C123.935 60.2351 124.057 60.0438 124.151 59.84C124.26 59.627 124.312 59.3891 124.307 59.1264C124.316 58.8545 124.248 58.5096 124.102 58.0917C123.961 57.6502 123.706 57.0777 123.336 56.3745C122.451 54.7126 121.91 53.2497 121.711 51.986C121.527 50.7129 121.632 49.4589 122.025 48.2241C122.432 46.98 123.025 45.9132 123.804 45.0239C124.588 44.1107 125.631 43.2352 126.934 42.3976C128.078 41.6623 129.1 41.1183 129.998 40.7656L132.525 44.6965L130.375 46.0787C129.551 45.4013 128.839 45.0099 128.239 44.9044C127.644 44.7751 127.014 44.9246 126.348 45.3527C125.87 45.6599 125.507 45.9856 125.258 46.33C125.023 46.6651 124.856 47.0586 124.758 47.5105C124.66 47.9625 124.658 48.4853 124.753 49.0789C124.863 49.6632 125.091 50.3354 125.436 51.0955C125.787 51.8319 126.315 52.7502 127.023 53.8506L128.489 56.1309L133.679 52.7942L135.089 54.9877Z" fill="#FEFDFC"/>
<path d="M160.402 62.4473L160.009 62.5291C159.359 64.5734 158.584 66.1785 157.685 67.3446C156.801 68.503 155.697 69.4151 154.373 70.0812C153.203 70.6698 152.059 70.9654 150.941 70.968C149.815 70.9552 148.809 70.6608 147.921 70.0848C147.025 69.4934 146.307 68.6587 145.764 67.5808C144.634 65.3327 144.871 63.0427 146.477 60.711C148.09 58.3562 151.071 55.9596 155.421 53.5212L154.666 52.0198C153.86 50.4184 153.071 49.2332 152.299 48.4642C151.526 47.6952 150.7 47.2616 149.821 47.1634C148.942 47.0653 147.948 47.295 146.84 47.8526C145.638 48.4567 144.827 49.2603 144.406 50.2634C143.999 51.2587 143.929 52.4807 144.195 53.9292L141.169 55.451L139.659 52.4483C140.75 50.9349 141.699 49.7533 142.506 48.9035C143.306 48.0383 144.148 47.2577 145.033 46.5619C145.91 45.8507 146.857 45.2395 147.873 44.7283C149.397 43.9616 150.745 43.5923 151.917 43.6204C153.081 43.633 154.146 44.0237 155.111 44.7922C156.076 45.5608 157.066 46.9537 158.081 48.9709L162.124 57.0088C162.697 58.1483 163.111 58.9529 163.367 59.4225C163.614 59.8767 163.877 60.2846 164.156 60.6463C164.434 61.0079 164.712 61.2732 164.99 61.4421C165.26 61.5956 165.584 61.6835 165.962 61.7057C166.355 61.7202 166.937 61.6495 167.707 61.4935L168.277 62.6253L161.948 65.8083L160.402 62.4473ZM156.373 55.4152C153.263 57.0182 151.131 58.6111 149.979 60.194C148.826 61.7769 148.657 63.3768 149.47 64.9937C149.911 65.8714 150.437 66.4752 151.047 66.8053C151.656 67.1353 152.281 67.2649 152.921 67.194C153.553 67.1077 154.238 66.8787 154.977 66.5069C156.024 65.9803 156.844 65.2499 157.435 64.3158C158.042 63.374 158.386 62.3904 158.469 61.365C158.551 60.3396 158.399 59.4419 158.011 58.672L156.373 55.4152Z" fill="#FEFDFC"/>
<path d="M179.148 28.8838C178.613 27.3181 178.223 26.231 177.978 25.6224C177.75 25.0083 177.506 24.5087 177.247 24.1237C176.998 23.7168 176.734 23.4245 176.455 23.2468C176.192 23.0635 175.872 22.9543 175.496 22.9191C175.136 22.8782 174.515 22.9267 173.633 23.0643L173.198 21.7922L179.034 19.523L180.478 19.0294L190.166 47.3581C190.601 48.6302 190.938 49.5351 191.176 50.0729C191.409 50.5944 191.663 50.9903 191.938 51.2607C192.212 51.5311 192.557 51.7138 192.972 51.8087C193.398 51.8817 194.082 51.8573 195.024 51.7355L195.459 53.0076L189.769 55.2266L188.301 55.7286L187.223 51.6162L186.822 51.6438C186.169 53.0879 185.553 54.2183 184.976 55.0349C184.41 55.8297 183.751 56.538 182.998 57.1598C182.261 57.776 181.404 58.2514 180.425 58.586C177.751 59.5007 175.342 59.1951 173.199 57.6692C171.05 56.127 169.32 53.4396 168.009 49.6069C167.095 46.9323 166.792 44.5036 167.103 42.3209C167.407 40.1218 168.202 38.2924 169.488 36.8325C170.791 35.367 172.445 34.2913 174.451 33.6052C175.527 33.2371 176.536 32.9922 177.478 32.8704C178.415 32.7323 179.415 32.7 180.478 32.7735L179.148 28.8838ZM183.281 40.9688C182.846 39.6967 182.44 38.6969 182.064 37.9694C181.688 37.2419 181.272 36.6646 180.816 36.2376C180.376 35.8049 179.867 35.4873 179.288 35.2847C178.708 35.082 178.113 34.994 177.503 35.0205C176.909 35.0415 176.229 35.183 175.462 35.4452C173.375 36.1591 172.072 37.5428 171.554 39.5963C171.03 41.6335 171.304 44.2178 172.374 47.3491C173.445 50.4805 174.708 52.7082 176.163 54.0323C177.618 55.3565 179.258 55.7062 181.085 55.0815C181.802 54.8361 182.378 54.5755 182.812 54.2995C183.24 54.0073 183.638 53.6527 184.006 53.2355C184.368 52.8021 184.704 52.2681 185.015 51.6334C185.326 50.9986 185.521 50.4493 185.599 49.9854C185.694 49.5159 185.712 49.0089 185.653 48.4642C185.594 47.9196 185.428 47.2477 185.155 46.4486L183.281 40.9688Z" fill="#FEFDFC"/>
<path d="M218.877 43.9801C218.016 45.3214 217.191 46.4014 216.403 47.2201C215.632 48.0356 214.742 48.7339 213.733 49.3151C212.721 49.8794 211.565 50.2877 210.264 50.5399C206.784 51.2145 203.956 50.6849 201.78 48.9511C199.6 47.2004 198.116 44.2896 197.326 40.2187C196.838 37.7019 196.855 35.3939 197.377 33.2947C197.916 31.1922 198.92 29.4552 200.389 28.0837C201.859 26.7122 203.683 25.8152 205.862 25.3927C207.568 25.062 209.073 25.0506 210.377 25.3586C211.681 25.6666 212.78 26.2248 213.672 27.0332C214.579 27.8214 215.366 28.8958 216.032 30.2562C216.713 31.5965 217.301 33.4104 217.797 35.6978L201.835 38.7926L201.923 39.2487C202.31 41.2419 202.855 42.88 203.559 44.1631C204.277 45.426 205.219 46.3477 206.383 46.9282C207.561 47.4886 208.969 47.6099 210.607 47.2923C211.992 47.0237 213.185 46.5297 214.184 45.81C215.198 45.0703 216.14 44.0112 217.012 42.6328L218.877 43.9801ZM212.626 34.5183C212.171 32.7137 211.655 31.2715 211.077 30.1916C210.497 29.0948 209.793 28.3112 208.965 27.8406C208.135 27.3532 207.145 27.2208 205.996 27.4435C204.257 27.7808 202.999 28.752 202.224 30.3571C201.462 31.9419 201.238 34.0446 201.554 36.665L212.626 34.5183Z" fill="#FEFDFC"/>
<path d="M228.979 11.9824L229.43 16.9982L224.673 17.4263L224.221 12.4106L228.979 11.9824ZM224.607 46.2329C225.26 45.9656 225.718 45.7419 225.98 45.562C226.259 45.3805 226.481 45.1433 226.646 44.8504C226.828 44.5561 226.945 44.1198 226.997 43.5417C227.067 42.962 227.047 42.0689 226.938 40.8624L225.924 29.5898C225.825 28.4867 225.727 27.6006 225.632 26.9315C225.537 26.2624 225.369 25.7389 225.126 25.3611C224.882 24.966 224.536 24.6931 224.088 24.5423C223.656 24.3727 223.046 24.2538 222.258 24.1857L222.134 22.8154L228.137 22.0406L229.715 21.8986L231.378 40.3846C231.512 41.8669 231.674 42.8949 231.864 43.4685C232.053 44.0249 232.352 44.4412 232.759 44.7173C233.182 44.9746 233.843 45.1758 234.742 45.3207L234.856 46.5876L224.721 47.4998L224.607 46.2329Z" fill="#FEFDFC"/>
<path d="M245.869 11.5094L245.98 16.524L241.224 16.6294L241.113 11.6149L245.869 11.5094ZM239.22 45.2501C239.888 45.0284 240.358 44.8369 240.63 44.6757C240.92 44.5141 241.156 44.2934 241.339 44.0135C241.54 43.7332 241.686 43.3076 241.777 42.7366C241.885 42.1653 241.925 41.2765 241.899 40.0702L241.649 28.8004C241.624 27.6976 241.587 26.8105 241.538 26.1392C241.489 25.4679 241.356 24.9364 241.141 24.5447C240.925 24.1357 240.599 23.8412 240.164 23.6612C239.746 23.4636 239.148 23.3044 238.369 23.1838L238.339 21.8138L244.356 21.4477L245.933 21.4127L246.343 39.8941C246.376 41.3761 246.467 42.4085 246.618 42.9913C246.769 43.5569 247.037 43.9906 247.423 44.2924C247.826 44.5765 248.469 44.8209 249.353 45.0254L249.381 46.292L239.248 46.5166L239.22 45.2501Z" fill="#FEFDFC"/>
<path d="M278.844 48.1764L268.693 47.3152L268.801 46.0528C269.488 45.9036 269.984 45.764 270.289 45.6342C270.594 45.5044 270.853 45.3102 271.065 45.0514C271.295 44.7941 271.485 44.3864 271.636 43.8284C271.806 43.2547 271.94 42.3839 272.039 41.216L272.612 34.4664C272.714 33.2642 272.772 32.1707 272.787 31.1859C272.801 30.2011 272.748 29.3923 272.629 28.7594C272.529 28.1108 272.373 27.6046 272.161 27.2407C271.969 26.8611 271.719 26.5372 271.413 26.2691C271.126 25.9852 270.782 25.7571 270.382 25.5848C269.983 25.3952 269.448 25.272 268.778 25.2152C268.109 25.1584 267.461 25.2418 266.837 25.4656C266.214 25.6722 265.514 26.0713 264.737 26.6627C263.961 27.2541 263.382 27.8537 263.002 28.4615C262.622 29.0693 262.397 29.7853 262.327 30.6097L261.511 40.2189C261.386 41.6959 261.367 42.7322 261.455 43.3278C261.544 43.9062 261.765 44.3661 262.117 44.7073C262.487 45.0327 263.1 45.3443 263.957 45.6419L263.85 46.9042L253.752 46.0473L253.859 44.785C254.546 44.6357 255.034 44.4955 255.321 44.3642C255.627 44.2344 255.885 44.0401 256.097 43.7814C256.327 43.5241 256.517 43.1164 256.668 42.5584C256.837 42.0018 256.972 41.1224 257.074 39.9202L258.027 28.688C258.12 27.5888 258.178 26.7029 258.2 26.0302C258.223 25.3574 258.148 24.8148 257.975 24.4023C257.804 23.9726 257.512 23.6451 257.099 23.4198C256.704 23.1787 256.126 22.9567 255.365 22.7537L255.481 21.3883L261.529 21.668L263.1 21.8013L262.46 25.9765L262.812 26.1101C264.193 24.9299 265.292 24.0977 266.112 23.6137C266.949 23.1312 267.774 22.7774 268.589 22.5525C269.423 22.3118 270.286 22.2294 271.179 22.3052C272.106 22.3839 272.921 22.5655 273.624 22.8499C274.345 23.1187 274.961 23.4997 275.473 23.9928C276.002 24.4875 276.418 25.085 276.722 25.7854C277.027 26.4686 277.226 27.2813 277.319 28.2233C277.429 29.1667 277.424 30.3512 277.303 31.7767L276.479 41.4889C276.379 42.674 276.34 43.5356 276.364 44.0739C276.387 44.6121 276.472 45.0345 276.619 45.341C276.766 45.6476 276.994 45.9178 277.303 46.1515C277.613 46.3681 278.163 46.6223 278.951 46.9141L278.844 48.1764Z" fill="#FEFDFC"/>
</svg>
